<svg width="16" height="16" viewBox="0 0 16 16" fill="none" xmlns="http://www.w3.org/2000/svg">
<path fill-rule="evenodd" clip-rule="evenodd" d="M6.01983 2.22913C7.32227 1.92362 8.67773 1.92362 9.98017 2.22913C11.8611 2.67033 13.3297 4.13894 13.7709 6.01983C14.0764 7.32227 14.0764 8.67773 13.7709 9.98017C13.3297 11.8611 11.8611 13.3297 9.98017 13.7709C8.67773 14.0764 7.32227 14.0764 6.01983 13.7709C4.13894 13.3297 2.67033 11.8611 2.22913 9.98017C1.92362 8.67773 1.92362 7.32227 2.22913 6.01983C2.67033 4.13894 4.13894 2.67033 6.01983 2.22913ZM10.0349 6.98487C10.1792 6.83027 10.1709 6.58796 10.0163 6.44367C9.86168 6.29937 9.61937 6.30773 9.47508 6.46233L7.51184 8.5658L6.51572 7.56967C6.36618 7.42014 6.12373 7.42014 5.9742 7.56967C5.82466 7.71921 5.82466 7.96166 5.9742 8.1112L7.25058 9.38758C7.32401 9.46101 7.42411 9.50146 7.52794 9.49967C7.63177 9.49788 7.73042 9.454 7.80127 9.37809L10.0349 6.98487Z" fill="#29CE00"/>
</svg>
