<svg width="247" height="186" viewBox="0 0 247 186" fill="none" xmlns="http://www.w3.org/2000/svg">
<g clip-path="url(#clip0_279_2078)">
<path d="M210.45 177.07C211.529 177.137 212.125 175.806 211.309 175.03L211.228 174.71C211.238 174.684 211.249 174.659 211.26 174.633C212.351 172.05 216.049 172.068 217.131 174.655C218.092 176.95 219.314 179.25 219.615 181.678C219.75 182.749 219.689 183.841 219.45 184.892C221.7 180.013 222.884 174.686 222.884 169.328C222.884 167.982 222.81 166.636 222.658 165.293C222.533 164.195 222.361 163.103 222.139 162.021C220.934 156.175 218.326 150.606 214.565 145.955C212.757 144.974 211.249 143.44 210.338 141.602C210.011 140.939 209.755 140.225 209.633 139.499C209.839 139.525 210.409 136.415 210.254 136.224C210.541 135.792 211.054 135.577 211.367 135.156C212.925 133.059 215.071 133.425 216.191 136.274C218.584 137.473 218.608 139.461 217.139 141.374C216.205 142.591 216.076 144.237 215.257 145.54C215.341 145.647 215.429 145.75 215.513 145.858C217.06 147.827 218.397 149.943 219.525 152.166C219.206 149.695 219.677 146.718 220.479 144.799C221.392 142.613 223.103 140.772 224.61 138.881C226.421 136.611 230.133 137.602 230.452 140.48C230.455 140.508 230.458 140.536 230.461 140.563C230.237 140.689 230.018 140.822 229.804 140.963C228.582 141.765 229.004 143.645 230.452 143.867L230.485 143.872C230.404 144.672 230.265 145.466 230.063 146.246C231.996 153.668 227.822 156.371 221.862 156.493C221.73 156.56 221.602 156.627 221.471 156.69C222.074 158.378 222.557 160.109 222.914 161.864C223.235 163.414 223.458 164.981 223.582 166.555C223.738 168.541 223.724 170.537 223.555 172.519L223.566 172.449C223.994 170.266 225.188 168.226 226.922 166.813C229.505 164.707 233.155 163.931 235.941 162.238C237.283 161.423 239.002 162.476 238.768 164.02L238.756 164.094C238.341 164.262 237.937 164.456 237.545 164.673C237.321 164.799 237.102 164.932 236.888 165.073C235.666 165.875 236.088 167.755 237.536 167.977L237.569 167.982C237.592 167.985 237.613 167.989 237.636 167.992C236.925 169.67 235.933 171.227 234.691 172.569C233.482 179.049 228.29 179.663 222.736 177.776H222.732C222.125 180.402 221.238 182.967 220.098 185.411H210.686C210.652 185.307 210.621 185.2 210.591 185.096C211.461 185.15 212.339 185.1 213.195 184.943C212.497 184.092 211.799 183.235 211.101 182.384C211.084 182.367 211.07 182.351 211.057 182.334C210.702 181.899 210.345 181.467 209.991 181.031L209.99 181.031C209.968 179.694 210.13 178.363 210.449 177.07L210.45 177.07L210.45 177.07V177.07Z" fill="#F2F2F2"/>
<path d="M81.0801 185.383C81.0801 185.725 81.3569 186 81.7017 186H246.378C246.723 186 247 185.725 247 185.383C247 185.041 246.723 184.766 246.378 184.766H81.7017C81.3569 184.766 81.0801 185.041 81.0801 185.383H81.0801Z" fill="#CCCCCC"/>
<path d="M142.944 140.801L140.4 142.829L139.585 143.482C139.512 143.383 139.429 143.28 139.345 143.186C138.546 142.289 137.397 141.776 136.196 141.776H115.784C115.716 141.434 115.7 141.087 115.732 140.739C115.821 139.733 116.306 138.764 117.163 138.085L131.5 126.653C133.161 125.326 135.595 125.59 136.932 127.244L143.539 135.41C144.876 137.063 144.61 139.474 142.944 140.801L142.944 140.801Z" fill="#E6E6E6"/>
<path d="M138.671 141.776H113.465C112.807 141.776 112.165 141.932 111.59 142.222L111.449 142.113C111.198 141.921 110.974 141.704 110.791 141.47C109.699 140.122 109.631 138.168 110.739 136.737L117.168 128.431C118.469 126.751 120.897 126.435 122.59 127.726L137.167 138.847C137.825 139.345 138.269 140.013 138.499 140.739C138.603 141.076 138.666 141.424 138.671 141.776Z" fill="#0093D5"/>
<path d="M159.292 13.2007H9.93421C4.45526 13.2007 0 17.623 0 23.0616V175.983C0 181.422 4.45526 185.844 9.93421 185.844H159.292C164.771 185.844 169.226 181.422 169.226 175.983V23.0616C169.226 17.623 164.771 13.2007 159.292 13.2007ZM168.181 175.983C168.181 180.852 164.196 184.807 159.292 184.807H9.93421C5.02978 184.807 1.04461 180.852 1.04461 175.983V23.0616C1.04461 18.1934 5.02977 14.2376 9.93421 14.2376H159.292C164.196 14.2376 168.181 18.1934 168.181 23.0616V175.983Z" fill="#3F3D56"/>
<path d="M67.3927 23.2327H52.7369C52.0004 23.2327 51.3998 23.8289 51.3998 24.5599C51.3998 25.2961 52.0004 25.8923 52.7369 25.8923H67.3927C68.1291 25.8923 68.7298 25.2961 68.7298 24.5599C68.7298 23.8289 68.1292 23.2327 67.3927 23.2327Z" fill="#E6E6E6"/>
<path d="M91.9409 23.2327H77.2851C76.5487 23.2327 75.948 23.8289 75.948 24.5599C75.948 25.2961 76.5487 25.8923 77.2851 25.8923H91.9409C92.6774 25.8923 93.278 25.2961 93.278 24.5599C93.278 23.8289 92.6774 23.2327 91.9409 23.2327Z" fill="#E6E6E6"/>
<path d="M116.489 23.2327H101.833C101.097 23.2327 100.496 23.8289 100.496 24.5599C100.496 25.2961 101.097 25.8923 101.833 25.8923H116.489C117.226 25.8923 117.826 25.2961 117.826 24.5599C117.826 23.8289 117.226 23.2327 116.489 23.2327Z" fill="#E6E6E6"/>
<path d="M45.7537 49.7513H27.3686C25.0914 49.7513 23.2424 51.5866 23.2424 53.8471V64.3198C23.2424 66.5802 25.0914 68.4155 27.3686 68.4155H45.7537C48.0309 68.4155 49.8799 66.5802 49.8799 64.3198V53.8471C49.8799 51.5866 48.0309 49.7513 45.7537 49.7513H45.7537Z" fill="#F2F2F2"/>
<path d="M45.7537 77.2292H27.3686C25.0914 77.2292 23.2424 79.0646 23.2424 81.325V91.7977C23.2424 94.0581 25.0914 95.8934 27.3686 95.8934H45.7537C48.0309 95.8934 49.8799 94.0581 49.8799 91.7977V81.325C49.8799 79.0645 48.0309 77.2292 45.7537 77.2292H45.7537Z" fill="#E6E6E6"/>
<path d="M45.7537 104.707H27.3686C25.0914 104.707 23.2424 106.542 23.2424 108.803V119.275C23.2424 121.536 25.0914 123.371 27.3686 123.371H45.7537C48.0309 123.371 49.8799 121.536 49.8799 119.275V108.803C49.8799 106.542 48.0309 104.707 45.7537 104.707H45.7537Z" fill="#E6E6E6"/>
<path d="M86.4933 49.7513H68.1083C65.831 49.7513 63.9821 51.5866 63.9821 53.8471V64.3198C63.9821 66.5802 65.831 68.4155 68.1083 68.4155H86.4933C88.7705 68.4155 90.6195 66.5802 90.6195 64.3198V53.8471C90.6195 51.5866 88.7705 49.7513 86.4933 49.7513Z" fill="#E6E6E6"/>
<path d="M86.4933 77.2292H68.1083C65.831 77.2292 63.9821 79.0646 63.9821 81.325V91.7977C63.9821 94.0581 65.831 95.8934 68.1083 95.8934H86.4933C88.7705 95.8934 90.6195 94.0581 90.6195 91.7977V81.325C90.6195 79.0645 88.7705 77.2292 86.4933 77.2292Z" fill="#F2F2F2"/>
<path d="M127.233 77.2292H108.848C106.571 77.2292 104.722 79.0646 104.722 81.325V91.7977C104.722 94.0581 106.571 95.8934 108.848 95.8934H127.233C129.51 95.8934 131.359 94.0581 131.359 91.7977V81.325C131.359 79.0645 129.51 77.2292 127.233 77.2292Z" fill="#E6E6E6"/>
<path d="M140.661 155.515H28.5647C23.9006 155.515 20.1086 159.279 20.1086 163.909V171.488C20.1086 176.118 23.9006 179.882 28.5647 179.882H140.661C145.325 179.882 149.117 176.118 149.117 171.488V163.909C149.117 159.279 145.325 155.515 140.661 155.515Z" fill="#F2F2F2"/>
<path d="M144.579 140.755C144.49 140.646 144.401 140.532 144.307 140.428C143.309 139.308 141.878 138.665 140.374 138.665C130.903 140.062 121.234 140.034 111.376 138.665C110.425 138.665 109.506 138.925 108.702 139.396C108.237 139.666 107.809 140.013 107.443 140.428C106.445 141.543 105.98 143.036 106.163 144.519L110.744 181.272C111.068 183.879 113.308 185.844 115.951 185.844H135.799C138.442 185.844 140.682 183.879 141.006 181.272L145.587 144.519C145.754 143.176 145.388 141.828 144.579 140.755Z" fill="white"/>
<path d="M144.579 140.755C144.49 140.646 144.401 140.532 144.307 140.428C143.309 139.308 141.878 138.665 140.374 138.665C130.708 139.694 121.042 139.694 111.376 138.665C110.425 138.665 109.506 138.925 108.702 139.396C108.237 139.666 107.809 140.013 107.443 140.428C106.445 141.543 105.98 143.036 106.163 144.519L110.744 181.272C110.864 182.251 111.256 183.138 111.836 183.864C112.802 185.072 114.285 185.839 115.93 185.844H135.799C137.642 185.844 139.293 184.885 140.228 183.423C140.635 182.785 140.907 182.06 141.006 181.272L145.587 144.519C145.754 143.176 145.388 141.828 144.579 140.755ZM144.547 144.389L139.972 181.142C139.972 181.152 139.967 181.168 139.967 181.178C139.69 183.252 137.904 184.807 135.799 184.807H115.951C113.846 184.807 112.06 183.252 111.783 181.178C111.783 181.168 111.778 181.152 111.778 181.142L107.203 144.389C107.056 143.202 107.427 142.009 108.226 141.112C108.587 140.708 109.02 140.381 109.501 140.148C110.075 139.858 110.718 139.702 111.376 139.702C121.042 141.569 130.708 141.569 140.374 139.702C141.575 139.702 142.724 140.216 143.524 141.112C143.607 141.206 143.691 141.309 143.764 141.408C144.396 142.263 144.678 143.331 144.547 144.389Z" fill="#3F3D56"/>
<path d="M140.499 181.178L140.228 183.423C139.293 184.885 137.642 185.844 135.799 185.844H115.93C114.285 185.839 112.802 185.072 111.835 183.864L111.773 181.178H140.499Z" fill="#3F3D56"/>
<path d="M161.408 60.8068L136.408 77.86L133.326 74.5528L156.323 55.4255L161.408 60.8068Z" fill="#A0616A"/>
<path d="M134.481 80.766C136.942 78.8044 137.985 76.0386 136.812 74.5884C135.638 73.1383 132.693 73.5529 130.232 75.5145C127.772 77.4761 126.728 80.2419 127.901 81.692C129.075 83.1422 132.021 82.7276 134.481 80.766Z" fill="#A0616A"/>
<path d="M174.244 183.018L169.493 183.018L167.234 164.83L174.245 164.831L174.244 183.018Z" fill="#A0616A"/>
<path d="M157.969 182.911C157.821 183.158 157.743 183.956 157.743 184.244C157.743 185.128 158.464 185.844 159.355 185.844H174.066C174.673 185.844 175.166 185.356 175.166 184.753V184.145C175.166 184.145 175.894 182.317 174.395 180.065C174.395 180.065 172.533 181.829 169.75 179.067L168.93 177.591L162.99 181.903L159.698 182.305C158.978 182.393 158.339 182.292 157.969 182.911Z" fill="#2F2E41"/>
<path d="M190.297 183.018L185.546 183.018L183.287 164.83L190.298 164.831L190.297 183.018Z" fill="#A0616A"/>
<path d="M174.022 182.911C173.874 183.158 173.796 183.956 173.796 184.244C173.796 185.128 174.518 185.844 175.408 185.844H190.119C190.726 185.844 191.219 185.356 191.219 184.753V184.145C191.219 184.145 191.947 182.317 190.448 180.065C190.448 180.065 188.586 181.829 185.804 179.067L184.983 177.591L179.043 181.903L175.751 182.305C175.031 182.393 174.392 182.292 174.022 182.911Z" fill="#2F2E41"/>
<path d="M166.068 81.6456L160.626 133.501C160.626 133.501 164.435 168.881 165.251 168.881C166.068 168.881 166.884 169.549 166.068 170.296C165.251 171.042 164.163 171.582 165.251 171.582C166.34 171.582 166.472 171.253 166.406 172.363C166.34 173.473 165.523 174.283 165.523 174.283L176.679 173.473L175.319 137.282L180.488 108.383C180.488 108.383 182.121 168.611 182.665 169.151C183.209 169.692 183.209 168.341 183.209 169.692C183.209 171.042 182.665 171.582 182.665 171.582L182.639 174.283H190.738L202.255 99.2008L200.351 80.2952L166.068 81.6456V81.6456Z" fill="#2F2E41"/>
<path d="M192.732 25.7389H182.937L177.061 27.1988C173.887 29.0692 168.198 34.6359 168.341 38.2969L169.605 70.5722C169.605 70.5722 165.276 80.699 166.092 80.699C166.909 80.699 162.939 83.9411 162.939 85.8317C162.939 87.7223 161.578 87.4522 162.394 88.2624C163.211 89.0727 202.255 88.2624 202.255 88.2624C202.255 88.2624 202.663 87.4522 202.663 86.1018C202.663 84.7514 203.473 83.9475 203.473 83.9475V81.4115L201.031 72.5978L205.384 33.1661L192.732 25.7389Z" fill="#0093D5"/>
<path d="M143.844 65.1297L147.18 70.862C149.001 69.7673 157.799 64.5211 159.32 64.3991C159.893 64.353 160.022 64.2462 160.047 64.2143C160.073 64.1829 160.065 64.1125 160.05 64.0001C160.026 63.8259 159.991 63.5627 160.196 63.3379C160.498 63.0083 160.762 63.2067 160.89 63.3019C161.088 63.4503 161.42 63.6983 162.489 63.548C162.763 63.5095 162.935 63.4766 163.043 63.4508L163.031 63.4396C162.798 63.2214 162.408 62.8564 162.379 62.2701C162.354 61.745 162.347 61.6043 162.54 61.5137C162.718 61.4311 162.856 61.5552 162.939 61.6291C163.079 61.7552 163.308 61.9612 163.781 61.9435C164.989 61.5511 176.222 45.4524 178.415 39.0391C178.961 37.4422 178.893 35.9593 178.214 34.6323C176.912 32.0879 173.724 30.8133 172.937 30.5312L156.991 52.7451L143.844 65.1297H143.844Z" fill="#0093D5"/>
<path d="M188.007 23.6606C193.835 23.6606 198.558 18.9716 198.558 13.1875C198.558 7.40342 193.835 2.71448 188.007 2.71448C182.18 2.71448 177.457 7.40342 177.457 13.1875C177.457 18.9716 182.18 23.6606 188.007 23.6606Z" fill="#A0616A"/>
<path d="M200.772 6.82251C199.845 4.84877 197.79 3.31516 195.599 3.42705C195.731 2.8792 195.487 2.29291 195.093 1.88715C194.699 1.48141 194.175 1.2275 193.65 1.01429C191.054 -0.0395054 188.13 -0.281264 185.394 0.331642C185.119 -0.0458513 181.214 0.906893 181.681 1.10916C182.148 1.31145 180.441 1.79459 180.36 2.29396C180.272 2.84108 179.688 3.1765 179.136 3.26184C178.585 3.34721 178.015 3.26412 177.467 3.36785C176.362 3.57686 177.599 4.9256 177.583 6.04227C177.567 7.15898 176.3 7.92425 177.399 8.16405C178.533 8.41156 176.964 10.405 178.105 10.1899C180.686 9.70319 191.956 8.66553 192.959 11.0756C193.238 11.7448 193.412 12.5031 193.96 12.9817C194.705 13.6332 195.946 13.5809 196.555 14.359C197.046 14.9863 196.906 15.9072 196.542 16.6152C196.179 17.3231 195.626 17.9261 195.297 18.6504C194.856 19.6214 194.858 20.7029 194.984 21.7767C195.082 21.7262 195.232 21.6757 195.457 21.6252L195.36 21.6373C198.175 19.6015 200.244 16.5697 201.104 13.219C201.646 11.1086 201.7 8.79626 200.772 6.82252V6.82251Z" fill="#2F2E41"/>
<path d="M208.191 94.0787H189.804C187.67 94.0787 185.94 95.7959 185.94 97.914V108.389C185.94 110.507 187.67 112.224 189.804 112.224H208.191C210.325 112.224 212.055 110.507 212.055 108.389V97.914C212.055 95.7959 210.325 94.0787 208.191 94.0787Z" fill="#0093D5"/>
<path d="M211.857 64.7952L201.426 93.0691L196.984 92.1447L204.572 63.3312L211.857 64.7952Z" fill="#A0616A"/>
<path d="M201.551 96.5458C202.412 93.5322 201.649 90.6776 199.847 90.1699C198.044 89.6622 195.884 91.6937 195.023 94.7074C194.162 97.721 194.925 100.576 196.727 101.083C198.53 101.591 200.69 99.5595 201.551 96.5458Z" fill="#A0616A"/>
<path d="M194.819 27.1989C194.819 27.1989 206.2 29.115 208.921 35.3268C211.642 41.5387 214.363 61.5246 213.547 62.3348C212.731 63.1451 211.914 62.3348 212.731 63.1451C213.547 63.9553 214.93 62.8877 213.694 64.3668C212.458 65.8459 211.914 65.0356 211.914 65.5758C211.914 66.116 213.003 65.9692 211.914 67.1229C210.826 68.2766 207.289 80.1601 207.289 80.1601L200.487 77.9995L201.847 59.9041L194.819 27.1989V27.1989Z" fill="#0093D5"/>
<path d="M107.079 145.405L107.066 146.442L144.572 146.911L144.586 145.875L107.079 145.405Z" fill="#3F3D56"/>
<path d="M140.292 79.0437H121.904C119.77 79.0437 118.04 80.7608 118.04 82.879V93.3541C118.04 95.4723 119.77 97.1894 121.904 97.1894H140.292C142.426 97.1894 144.156 95.4723 144.156 93.3541V82.879C144.156 80.7608 142.426 79.0437 140.292 79.0437Z" fill="#3F3D56"/>
</g>
<defs>
<clipPath id="clip0_279_2078">
<rect width="247" height="186" fill="white"/>
</clipPath>
</defs>
</svg>
