<svg width="114" height="32" viewBox="0 0 114 32" fill="none" xmlns="http://www.w3.org/2000/svg">
<path d="M27.0545 8.72727L16 2.32727L4.65454 8.72727L7.56363 10.4727L11.9273 8.14545L16.8727 11.3455L13.0909 13.6727L16 15.4182L27.0545 8.72727Z" fill="#44D8BB"/>
<path d="M20.9454 8.72733L15.9999 5.81824L14.8363 6.40006L19.7818 9.30915L20.9454 8.72733Z" fill="white"/>
<path d="M3.78186 18.3272V10.1818L15.1273 16.5818V20.0727L6.98186 15.4181V16.8727L15.1273 21.5272V29.3818L3.78186 23.2727V19.4909L12.2182 24.1454V22.9818L3.78186 18.3272Z" fill="#44D8BB"/>
<path d="M27.9272 10.1818L16.5818 16.5818V20.0727L20.9454 17.7454V26.7636L23.8545 25.0181V15.9999L27.9272 13.3818V10.1818Z" fill="#474747"/>
<path d="M25.0182 24.1454V16.5818L27.9273 14.8363V22.3999L25.0182 24.1454Z" fill="#474747"/>
<path d="M16.5818 29.3818V21.5273L19.4909 20.0728V27.6364L16.5818 29.3818Z" fill="#474747"/>
<path d="M41.5359 20.5H40.4279L43.6325 11.7727H44.7234L47.9279 20.5H46.82L44.212 13.1534H44.1438L41.5359 20.5ZM41.945 17.0909H46.4109V18.0284H41.945V17.0909ZM53.7873 15.4205L52.8839 15.6761C52.8271 15.5256 52.7433 15.3793 52.6325 15.2372C52.5245 15.0923 52.3768 14.973 52.1893 14.8793C52.0018 14.7855 51.7617 14.7386 51.4691 14.7386C51.0685 14.7386 50.7347 14.831 50.4677 15.0156C50.2035 15.1974 50.0714 15.429 50.0714 15.7102C50.0714 15.9602 50.1623 16.1577 50.3441 16.3026C50.5259 16.4474 50.81 16.5682 51.1964 16.6648L52.168 16.9034C52.7532 17.0455 53.1893 17.2628 53.4762 17.5554C53.7631 17.8452 53.9066 18.2187 53.9066 18.6761C53.9066 19.0511 53.7987 19.3864 53.5827 19.6818C53.3697 19.9773 53.0714 20.2102 52.6879 20.3807C52.3043 20.5511 51.8583 20.6364 51.3498 20.6364C50.6822 20.6364 50.1296 20.4915 49.6921 20.2017C49.2546 19.9119 48.9776 19.4886 48.8612 18.9318L49.8157 18.6932C49.9066 19.0455 50.0785 19.3097 50.3313 19.4858C50.587 19.6619 50.9208 19.75 51.3327 19.75C51.8015 19.75 52.1737 19.6506 52.4492 19.4517C52.7276 19.25 52.8668 19.0085 52.8668 18.7273C52.8668 18.5 52.7873 18.3097 52.6282 18.1562C52.4691 18 52.2248 17.8835 51.8952 17.8068L50.8043 17.5511C50.2049 17.4091 49.7646 17.1889 49.4833 16.8906C49.2049 16.5895 49.0657 16.2131 49.0657 15.7614C49.0657 15.392 49.1694 15.0653 49.3768 14.7812C49.587 14.4972 49.8725 14.2741 50.2333 14.1122C50.5969 13.9503 51.0089 13.8693 51.4691 13.8693C52.1168 13.8693 52.6254 14.0114 52.9947 14.2955C53.3668 14.5795 53.631 14.9545 53.7873 15.4205ZM55.4205 20.5V13.9545H56.4261V20.5H55.4205ZM55.9318 12.8636C55.7358 12.8636 55.5668 12.7969 55.4247 12.6634C55.2855 12.5298 55.2159 12.3693 55.2159 12.1818C55.2159 11.9943 55.2855 11.8338 55.4247 11.7003C55.5668 11.5668 55.7358 11.5 55.9318 11.5C56.1278 11.5 56.2955 11.5668 56.4347 11.7003C56.5767 11.8338 56.6477 11.9943 56.6477 12.1818C56.6477 12.3693 56.5767 12.5298 56.4347 12.6634C56.2955 12.7969 56.1278 12.8636 55.9318 12.8636ZM60.1942 20.6534C59.7795 20.6534 59.4031 20.5753 59.065 20.419C58.7269 20.2599 58.4585 20.0312 58.2596 19.733C58.0607 19.4318 57.9613 19.0682 57.9613 18.642C57.9613 18.267 58.0352 17.9631 58.1829 17.7301C58.3306 17.4943 58.5281 17.3097 58.7752 17.1761C59.0224 17.0426 59.2951 16.9432 59.5934 16.8778C59.8945 16.8097 60.1971 16.7557 60.5011 16.7159C60.8988 16.6648 61.2212 16.6264 61.4684 16.6009C61.7184 16.5724 61.9002 16.5256 62.0138 16.4602C62.1303 16.3949 62.1886 16.2812 62.1886 16.1193V16.0852C62.1886 15.6648 62.0735 15.3381 61.8434 15.1051C61.6161 14.8722 61.271 14.7557 60.8079 14.7557C60.3278 14.7557 59.9513 14.8608 59.6786 15.071C59.4059 15.2812 59.2141 15.5057 59.1033 15.7443L58.1488 15.4034C58.3192 15.0057 58.5465 14.696 58.8306 14.4744C59.1175 14.25 59.43 14.0937 59.7681 14.0057C60.109 13.9148 60.4442 13.8693 60.7738 13.8693C60.984 13.8693 61.2255 13.8949 61.4982 13.946C61.7738 13.9943 62.0394 14.0952 62.2951 14.2486C62.5536 14.402 62.7681 14.6335 62.9386 14.9432C63.109 15.2528 63.1942 15.6676 63.1942 16.1875V20.5H62.1886V19.6136H62.1374C62.0692 19.7557 61.9556 19.9077 61.7965 20.0696C61.6374 20.2315 61.4258 20.3693 61.1616 20.483C60.8974 20.5966 60.5749 20.6534 60.1942 20.6534ZM60.3477 19.75C60.7454 19.75 61.0806 19.6719 61.3533 19.5156C61.6289 19.3594 61.8363 19.1577 61.9755 18.9105C62.1175 18.6634 62.1886 18.4034 62.1886 18.1307V17.2102C62.146 17.2614 62.0522 17.3082 61.9073 17.3509C61.7653 17.3906 61.6005 17.4261 61.413 17.4574C61.2283 17.4858 61.0479 17.5114 60.8718 17.5341C60.6985 17.554 60.5579 17.571 60.4499 17.5852C60.1886 17.6193 59.9442 17.6747 59.717 17.7514C59.4925 17.8253 59.3107 17.9375 59.1715 18.0881C59.0352 18.2358 58.967 18.4375 58.967 18.6932C58.967 19.0426 59.0962 19.3068 59.3548 19.4858C59.6161 19.6619 59.9471 19.75 60.3477 19.75ZM64.1381 12.7102V11.7727H70.6836V12.7102H67.9393V20.5H66.8825V12.7102H64.1381ZM73.9734 20.6364C73.3427 20.6364 72.7987 20.4972 72.3413 20.2188C71.8867 19.9375 71.5359 19.5455 71.2887 19.0426C71.0444 18.5369 70.9222 17.9489 70.9222 17.2784C70.9222 16.608 71.0444 16.017 71.2887 15.5057C71.5359 14.9915 71.8796 14.5909 72.32 14.304C72.7631 14.0142 73.2802 13.8693 73.8711 13.8693C74.212 13.8693 74.5487 13.9261 74.881 14.0398C75.2134 14.1534 75.516 14.3381 75.7887 14.5938C76.0614 14.8466 76.2788 15.1818 76.4407 15.5994C76.6026 16.017 76.6836 16.5312 76.6836 17.142V17.5682H71.6381V16.6989H75.6609C75.6609 16.3295 75.587 16 75.4393 15.7102C75.2944 15.4205 75.087 15.1918 74.8171 15.0241C74.5501 14.8565 74.2347 14.7727 73.8711 14.7727C73.4705 14.7727 73.1239 14.8722 72.8313 15.071C72.5415 15.267 72.3185 15.5227 72.1623 15.8381C72.006 16.1534 71.9279 16.4915 71.9279 16.8523V17.4318C71.9279 17.9261 72.0131 18.3452 72.1836 18.6889C72.3569 19.0298 72.5969 19.2898 72.9038 19.4688C73.2106 19.6449 73.5671 19.733 73.9734 19.733C74.2376 19.733 74.4762 19.696 74.6893 19.6222C74.9052 19.5455 75.0913 19.4318 75.2475 19.2812C75.4038 19.1278 75.5245 18.9375 75.6097 18.7102L76.5813 18.983C76.479 19.3125 76.3072 19.6023 76.0657 19.8523C75.8242 20.0994 75.5259 20.2926 75.1708 20.4318C74.8157 20.5682 74.4165 20.6364 73.9734 20.6364ZM80.8725 20.6364C80.2589 20.6364 79.7305 20.4915 79.2873 20.2017C78.8441 19.9119 78.5032 19.5128 78.2646 19.0043C78.0259 18.4957 77.9066 17.9148 77.9066 17.2614C77.9066 16.5966 78.0288 16.0099 78.2731 15.5014C78.5202 14.9901 78.864 14.5909 79.3043 14.304C79.7475 14.0142 80.2646 13.8693 80.8555 13.8693C81.3157 13.8693 81.7305 13.9545 82.0998 14.125C82.4691 14.2955 82.7717 14.5341 83.0075 14.8409C83.2433 15.1477 83.3896 15.5057 83.4464 15.9148H82.4407C82.364 15.6165 82.1935 15.3523 81.9293 15.1222C81.668 14.8892 81.3157 14.7727 80.8725 14.7727C80.4805 14.7727 80.1367 14.875 79.8413 15.0795C79.5487 15.2812 79.32 15.5668 79.1552 15.9361C78.9933 16.3026 78.9123 16.733 78.9123 17.2273C78.9123 17.733 78.9918 18.1733 79.1509 18.5483C79.3129 18.9233 79.5401 19.2145 79.8327 19.4219C80.1282 19.6293 80.4748 19.733 80.8725 19.733C81.1339 19.733 81.3711 19.6875 81.5842 19.5966C81.7972 19.5057 81.9776 19.375 82.1254 19.2045C82.2731 19.0341 82.3782 18.8295 82.4407 18.5909H83.4464C83.3896 18.9773 83.2489 19.3253 83.0245 19.6349C82.8029 19.9418 82.5089 20.1861 82.1424 20.3679C81.7788 20.5469 81.3555 20.6364 80.8725 20.6364ZM85.9222 16.5625V20.5H84.9165V11.7727H85.9222V14.9773H86.0075C86.1609 14.6392 86.391 14.3707 86.6978 14.1719C87.0075 13.9702 87.4194 13.8693 87.9336 13.8693C88.3796 13.8693 88.7702 13.9588 89.1055 14.1378C89.4407 14.3139 89.7006 14.5852 89.8853 14.9517C90.0728 15.3153 90.1665 15.7784 90.1665 16.3409V20.5H89.1609V16.4091C89.1609 15.8892 89.0259 15.4872 88.756 15.2031C88.489 14.9162 88.1183 14.7727 87.6438 14.7727C87.3143 14.7727 87.0188 14.8423 86.7575 14.9815C86.4989 15.1207 86.2944 15.3239 86.1438 15.5909C85.9961 15.858 85.9222 16.1818 85.9222 16.5625ZM92.7393 20.5682C92.5291 20.5682 92.3487 20.4929 92.1982 20.3423C92.0476 20.1918 91.9723 20.0114 91.9723 19.8011C91.9723 19.5909 92.0476 19.4105 92.1982 19.2599C92.3487 19.1094 92.5291 19.0341 92.7393 19.0341C92.9496 19.0341 93.13 19.1094 93.2805 19.2599C93.4311 19.4105 93.5064 19.5909 93.5064 19.8011C93.5064 19.9403 93.4709 20.0682 93.3999 20.1847C93.3317 20.3011 93.2393 20.3949 93.1229 20.4659C93.0092 20.5341 92.8814 20.5682 92.7393 20.5682ZM98.7884 11.7727H99.8452V18.0114C99.8452 18.5682 99.7429 19.0412 99.5384 19.4304C99.3338 19.8196 99.0455 20.1151 98.6733 20.3168C98.3011 20.5185 97.8622 20.6193 97.3565 20.6193C96.8793 20.6193 96.4545 20.5327 96.0824 20.3594C95.7102 20.1832 95.4176 19.9332 95.2045 19.6094C94.9915 19.2855 94.8849 18.9006 94.8849 18.4545H95.9247C95.9247 18.7017 95.9858 18.9176 96.108 19.1023C96.233 19.2841 96.4034 19.4261 96.6193 19.5284C96.8352 19.6307 97.081 19.6818 97.3565 19.6818C97.6605 19.6818 97.919 19.6179 98.1321 19.4901C98.3452 19.3622 98.5071 19.1747 98.6179 18.9276C98.7315 18.6776 98.7884 18.3722 98.7884 18.0114V11.7727ZM106.463 15.4205L105.56 15.6761C105.503 15.5256 105.419 15.3793 105.308 15.2372C105.2 15.0923 105.053 14.973 104.865 14.8793C104.678 14.7855 104.438 14.7386 104.145 14.7386C103.744 14.7386 103.411 14.831 103.143 15.0156C102.879 15.1974 102.747 15.429 102.747 15.7102C102.747 15.9602 102.838 16.1577 103.02 16.3026C103.202 16.4474 103.486 16.5682 103.872 16.6648L104.844 16.9034C105.429 17.0455 105.865 17.2628 106.152 17.5554C106.439 17.8452 106.582 18.2187 106.582 18.6761C106.582 19.0511 106.474 19.3864 106.259 19.6818C106.045 19.9773 105.747 20.2102 105.364 20.3807C104.98 20.5511 104.534 20.6364 104.026 20.6364C103.358 20.6364 102.805 20.4915 102.368 20.2017C101.93 19.9119 101.653 19.4886 101.537 18.9318L102.491 18.6932C102.582 19.0455 102.754 19.3097 103.007 19.4858C103.263 19.6619 103.597 19.75 104.009 19.75C104.477 19.75 104.849 19.6506 105.125 19.4517C105.403 19.25 105.543 19.0085 105.543 18.7273C105.543 18.5 105.463 18.3097 105.304 18.1562C105.145 18 104.901 17.8835 104.571 17.8068L103.48 17.5511C102.881 17.4091 102.44 17.1889 102.159 16.8906C101.881 16.5895 101.741 16.2131 101.741 15.7614C101.741 15.392 101.845 15.0653 102.053 14.7812C102.263 14.4972 102.548 14.2741 102.909 14.1122C103.273 13.9503 103.685 13.8693 104.145 13.8693C104.793 13.8693 105.301 14.0114 105.67 14.2955C106.043 14.5795 106.307 14.9545 106.463 15.4205ZM110.755 20.6364C110.142 20.6364 109.613 20.4915 109.17 20.2017C108.727 19.9119 108.386 19.5128 108.147 19.0043C107.909 18.4957 107.789 17.9148 107.789 17.2614C107.789 16.5966 107.912 16.0099 108.156 15.5014C108.403 14.9901 108.747 14.5909 109.187 14.304C109.63 14.0142 110.147 13.8693 110.738 13.8693C111.199 13.8693 111.613 13.9545 111.983 14.125C112.352 14.2955 112.654 14.5341 112.89 14.8409C113.126 15.1477 113.272 15.5057 113.329 15.9148H112.324C112.247 15.6165 112.076 15.3523 111.812 15.1222C111.551 14.8892 111.199 14.7727 110.755 14.7727C110.363 14.7727 110.02 14.875 109.724 15.0795C109.431 15.2812 109.203 15.5668 109.038 15.9361C108.876 16.3026 108.795 16.733 108.795 17.2273C108.795 17.733 108.875 18.1733 109.034 18.5483C109.196 18.9233 109.423 19.2145 109.716 19.4219C110.011 19.6293 110.358 19.733 110.755 19.733C111.017 19.733 111.254 19.6875 111.467 19.5966C111.68 19.5057 111.86 19.375 112.008 19.2045C112.156 19.0341 112.261 18.8295 112.324 18.5909H113.329C113.272 18.9773 113.132 19.3253 112.907 19.6349C112.686 19.9418 112.392 20.1861 112.025 20.3679C111.662 20.5469 111.238 20.6364 110.755 20.6364Z" fill="#6F6E71"/>
</svg>
