<svg width="247" height="63" viewBox="0 0 247 63" fill="none" xmlns="http://www.w3.org/2000/svg">
<path d="M34.9531 28.478C33.6362 28.1799 32.8315 27.5093 32.6851 25.9445C32.0267 25.7955 30.2709 25.7955 30.0514 25.9445C29.621 26.2368 26.5398 28.925 26.174 29.3721C25.8082 29.8192 27.3373 32.6507 27.7103 32.6507C27.8567 32.6507 29.3198 31.4585 29.2467 31.8311C29.1735 32.2036 28.1493 34.9606 28.0761 35.4077C28.003 35.8547 30.4904 37.5685 31.9535 38.2392C33.4167 38.9098 37.3673 39.1333 37.3673 38.9098C37.3673 38.6862 38.0689 33.8276 38.3915 33.9919C38.5378 34.29 38.9768 35.4822 39.1231 35.4822C40.1473 35.4822 42.0495 33.6939 42.0495 33.3213C42.0495 32.9881 40.5863 29.4466 40.44 29.1486C40.1718 28.6024 38.0989 27.2262 37.9526 27.2858C37.8062 27.3454 36.8552 28.9085 34.9531 28.478Z" fill="#0093D5"/>
<path d="M30.395 35.4917C24.8191 34.3063 19.2606 34.4815 16.4204 38.1337C16.4204 41.6304 16.9076 49.9327 25.369 53.364C34.1837 56.9385 48.6798 49.1797 46.2055 38.3009C41.4888 41.9531 34.4157 36.3464 30.395 35.4917Z" fill="#44D8BB"/>
<path d="M28.5929 35.7622C23.486 33.3029 17.9065 35.7622 16.441 38.1446C16.441 41.6029 15.6727 47.6468 23.5168 52.2083C32.9 57.6648 46.2055 51.2093 46.2055 43.2936C37.6684 44.0621 34.9765 38.8362 28.5929 35.7622Z" fill="#0093D5"/>
<path d="M22.7317 27.6814L23.5205 28.7742L24.8635 28.8867L23.7708 29.6755L23.6583 31.0185L22.8695 29.9258L21.5264 29.8133L22.6192 29.0245L22.7317 27.6814Z" fill="#0093D5"/>
<path d="M25.0769 36.1129L24.991 37.1877L25.751 37.9525L24.6762 37.8666L23.9114 38.6265L23.9973 37.5518L23.2373 36.787L24.3121 36.8729L25.0769 36.1129Z" fill="white"/>
<path d="M20.9022 31.2793L21.3279 31.9668L22.1269 32.0912L21.4393 32.5169L21.3149 33.3159L20.8893 32.6283L20.0902 32.5039L20.7778 32.0783L20.9022 31.2793Z" fill="#0093D5"/>
<path d="M24.04 32.4583L24.2271 32.9638L24.7326 33.1509L24.2271 33.338L24.04 33.8436L23.8529 33.338L23.3473 33.1509L23.8529 32.9638L24.04 32.4583Z" fill="#0093D5"/>
<path d="M21.8443 39.3227L21.7686 39.8565L22.1246 40.2614L21.5908 40.1857L21.1859 40.5416L21.2616 40.0079L20.9057 39.603L21.4394 39.6787L21.8443 39.3227Z" fill="white"/>
<circle cx="24.0399" cy="43.1496" r="1.38535" fill="white"/>
<circle cx="26.118" cy="45.9203" r="0.692676" fill="white"/>
<circle cx="28.8886" cy="47.3056" r="0.692676" fill="white"/>
<circle cx="35.8154" cy="47.3056" r="0.692676" fill="white"/>
<circle cx="34.7764" cy="49.0373" r="0.346338" fill="white"/>
<path fill-rule="evenodd" clip-rule="evenodd" d="M46.2055 38.3009C46.2054 46.3345 39.6929 52.8471 31.6593 52.8471C23.6256 52.8471 17.1131 46.3345 17.1131 38.3009C17.1131 30.2672 23.6256 23.7547 31.6593 23.7547C37.9928 23.7547 43.3809 27.8025 45.3778 33.4522H49.7269C47.5911 25.4738 40.3113 19.5986 31.6593 19.5986C21.3303 19.5986 12.957 27.9719 12.957 38.3009C12.957 48.6298 21.3303 57.0031 31.6593 57.0031C41.9882 57.0031 50.3615 48.6299 50.3615 38.3009H46.2055Z" fill="#44D8BB"/>
<path fill-rule="evenodd" clip-rule="evenodd" d="M57.2884 19.5987V60.4665H46.5519V51.7816C49.7803 48.2172 51.7469 43.4887 51.7469 38.3009C51.7469 33.1131 49.7803 28.3845 46.5519 24.8202V14.0573L57.2884 19.5987Z" fill="#0093D5"/>
<path fill-rule="evenodd" clip-rule="evenodd" d="M43.7811 54.3202V60.4665H33.0447V58.3415C37.0629 58.0678 40.7566 56.6124 43.7811 54.3202ZM43.7811 22.2816V7.82314L33.0447 2.28174V18.2603C37.0629 18.534 40.7566 19.9894 43.7811 22.2816Z" fill="#0093D5"/>
<path fill-rule="evenodd" clip-rule="evenodd" d="M19.5375 54.3202V60.4665H30.2739V58.3415C26.2558 58.0678 22.562 56.6124 19.5375 54.3202ZM19.5375 22.2816C22.562 19.9894 26.2558 18.534 30.2739 18.2603V2.28174L19.5375 7.82314V22.2816Z" fill="#0093D5"/>
<path fill-rule="evenodd" clip-rule="evenodd" d="M6.0304 19.5987V60.4665H16.7669V51.7817C13.5384 48.2173 11.5718 43.4888 11.5718 38.3009C11.5718 33.1131 13.5384 28.3845 16.7669 24.8202V14.0573L6.0304 19.5987Z" fill="#0093D5"/>
<path d="M72.4992 37.6318H68.8894C67.6951 37.6318 66.7859 37.5248 66.162 37.3109C65.544 37.0911 65.0063 36.7197 64.5487 36.1968C64.317 35.9413 64.1268 35.6917 63.9783 35.4481C63.8297 35.2163 63.702 34.94 63.595 34.6192C63.4108 34.0368 63.3187 33.2287 63.3187 32.1948V24.3245H66.4651V32.1057C66.4651 32.4206 66.471 32.7117 66.4829 32.9791C66.4829 33.2584 66.5007 33.4783 66.5364 33.6387C66.6195 33.918 66.7176 34.123 66.8305 34.2537C66.9374 34.4023 67.0503 34.5181 67.1692 34.6013C67.294 34.7023 67.4603 34.7885 67.6683 34.8598C68.0546 34.9846 68.5418 35.047 69.1301 35.047H72.4992V37.6318Z" fill="#44D8BB"/>
<path d="M88.1663 37.6407H84.6635L83.4959 34.5835H78.2906L77.1586 37.6407H73.7984L79.3691 24.3245H82.5422L88.1663 37.6407ZM82.4352 31.8293L80.8487 27.7739L79.3334 31.8293H82.4352Z" fill="#44D8BB"/>
<path d="M102.131 32.3196C102.131 32.7712 102.113 33.1723 102.078 33.5228C102.042 33.8675 101.994 34.2032 101.935 34.53C101.81 35.1421 101.602 35.6055 101.311 35.9205C100.788 36.5503 100.126 37.0168 99.3234 37.3198C98.5212 37.6169 97.5348 37.7655 96.3642 37.7655C95.1937 37.7655 94.2132 37.6199 93.4229 37.3287C92.6207 37.0316 91.9404 36.5622 91.3818 35.9205C91.1144 35.5521 90.9272 35.1005 90.8203 34.5657C90.6955 34.0309 90.6331 33.2822 90.6331 32.3196V24.3245H93.7349V32.2483C93.7349 33.3713 93.925 34.1557 94.3053 34.6013C94.7034 35.0351 95.3897 35.252 96.3642 35.252C97.3387 35.252 98.028 35.0351 98.4321 34.6013C98.8183 34.1557 99.0114 33.3713 99.0114 32.2483V24.3245H102.131V32.3196Z" fill="#44D8BB"/>
<path d="M118.11 37.6407H114.643L109.527 28.5672L109.634 37.6407H106.461V24.3245H110.204L115.026 32.9078L114.919 24.3245H118.11V37.6407Z" fill="#44D8BB"/>
<path d="M134.677 31.2054C134.677 31.8056 134.642 32.3552 134.57 32.8544C134.487 33.3535 134.354 33.8407 134.169 34.3161C133.819 35.2134 133.308 35.9234 132.636 36.4463C132.113 36.8504 131.549 37.1534 130.943 37.3555C130.307 37.5397 129.502 37.6318 128.527 37.6318H122.413V24.3245H128.456C130.56 24.3245 132.122 24.886 133.144 26.0091C134.166 27.1262 134.677 28.8583 134.677 31.2054ZM131.299 30.9737C131.299 29.4763 131.1 28.4424 130.702 27.8719C130.286 27.3074 129.52 27.0252 128.403 27.0252H125.533V34.9311H128.403C129.508 34.9311 130.265 34.6518 130.675 34.0933C131.091 33.5347 131.299 32.4949 131.299 30.9737Z" fill="#44D8BB"/>
<path d="M150.505 37.6407H146.966L144.177 32.6048H141.378V37.6407H138.258V24.3245H145.068C146.684 24.3245 147.852 24.6602 148.571 25.3317C149.337 25.9913 149.721 27.0192 149.721 28.4156C149.721 29.4495 149.489 30.2963 149.025 30.9559C148.615 31.5501 148.033 31.9571 147.278 32.177L150.505 37.6407ZM146.583 28.4513C146.583 27.9521 146.444 27.5986 146.164 27.3906C145.849 27.1886 145.27 27.0876 144.426 27.0876H141.378V29.8596H144.426C145.246 29.8596 145.82 29.7496 146.146 29.5298C146.438 29.3099 146.583 28.9504 146.583 28.4513Z" fill="#44D8BB"/>
<path d="M164.773 24.3245L159.683 31.7759V37.6407H156.564V31.7937L151.501 24.3245H155.084L158.097 29.0395L161.127 24.3245H164.773Z" fill="#44D8BB"/>
<path d="M187.782 33.5674C187.782 34.9519 187.399 35.9769 186.632 36.6424C185.866 37.302 184.692 37.6318 183.112 37.6318H175.776V34.8955H182.693C183.031 34.8955 183.328 34.8687 183.584 34.8152C183.828 34.7736 184.018 34.6964 184.154 34.5835C184.416 34.3934 184.547 34.0844 184.547 33.6565C184.547 33.2168 184.425 32.887 184.181 32.6672C184.05 32.5721 183.887 32.5067 183.691 32.4711C183.483 32.4354 183.21 32.4176 182.871 32.4176H179.707C178.227 32.4176 177.104 32.0997 176.338 31.4639C175.619 30.8222 175.259 29.8298 175.259 28.4869C175.259 27.0668 175.642 26.015 176.409 25.3317C177.164 24.6602 178.34 24.3245 179.939 24.3245H187.185V27.0787L180.34 27.0876C179.656 27.0876 179.181 27.2034 178.914 27.4352C178.646 27.6372 178.512 27.9997 178.512 28.5226C178.512 28.891 178.622 29.1792 178.842 29.3872C179.11 29.5892 179.481 29.6902 179.956 29.6902H183.495C185.04 29.6902 186.139 29.9932 186.793 30.5993C187.452 31.1995 187.782 32.1888 187.782 33.5674Z" fill="#44D8BB"/>
<path d="M201.667 27.0519H197.522V37.6407H194.313L194.304 27.0519H190.195V24.3423H201.667V27.0519Z" fill="#44D8BB"/>
<path d="M217.031 30.9737C217.031 33.297 216.487 35.0321 215.399 36.1789C214.318 37.3317 212.669 37.9081 210.453 37.9081C208.189 37.9081 206.528 37.3347 205.47 36.1879C204.413 35.0351 203.884 33.2554 203.884 30.8489C203.884 28.5731 204.424 26.8737 205.506 25.7506C206.576 24.6454 208.224 24.0928 210.453 24.0928C212.681 24.0928 214.336 24.6573 215.417 25.7863C216.493 26.9331 217.031 28.6622 217.031 30.9737ZM213.67 30.9737C213.67 29.5119 213.409 28.4335 212.886 27.7382C212.363 27.0608 211.552 26.7221 210.453 26.7221C209.383 26.7221 208.581 27.0549 208.046 27.7204C207.779 28.0769 207.577 28.5107 207.44 29.0217C207.309 29.5327 207.244 30.1477 207.244 30.8667C207.244 32.3879 207.505 33.4931 208.028 34.1824C208.539 34.8776 209.347 35.2252 210.453 35.2252C211.522 35.2252 212.327 34.8776 212.868 34.1824C213.403 33.505 213.67 32.4354 213.67 30.9737Z" fill="#44D8BB"/>
<path d="M232.831 37.6407H229.293L226.503 32.6048H223.704V37.6407H220.585V24.3245H227.394C229.011 24.3245 230.178 24.6602 230.897 25.3317C231.664 25.9913 232.047 27.0192 232.047 28.4156C232.047 29.4495 231.815 30.2963 231.352 30.9559C230.942 31.5501 230.359 31.9571 229.605 32.177L232.831 37.6407ZM228.91 28.4513C228.91 27.9521 228.77 27.5986 228.491 27.3906C228.176 27.1886 227.596 27.0876 226.753 27.0876H223.704V29.8596H226.753C227.573 29.8596 228.146 29.7496 228.473 29.5298C228.764 29.3099 228.91 28.9504 228.91 28.4513Z" fill="#44D8BB"/>
<path d="M246.172 37.6318H241.404C240.393 37.6318 239.597 37.5456 239.015 37.3733C238.421 37.2069 237.847 36.8979 237.295 36.4463C236.617 35.8759 236.112 35.1599 235.779 34.2983C235.441 33.4307 235.271 32.3998 235.271 31.2054C235.271 28.8702 235.776 27.1381 236.787 26.0091C237.785 24.886 239.348 24.3245 241.475 24.3245H246.172V27.0252H241.528C240.643 27.0252 239.98 27.2391 239.541 27.6669C239.089 28.1007 238.828 28.7276 238.756 29.5476L246.172 29.5654V32.2483H238.739C238.739 32.6939 238.795 33.0891 238.908 33.4337C239.003 33.7724 239.155 34.0457 239.363 34.2537C239.796 34.7053 240.518 34.9311 241.528 34.9311H246.172V37.6318Z" fill="#44D8BB"/>
<path d="M66.921 53.1763C66.4475 53.1763 66.0111 53.1021 65.6118 52.9538C65.2182 52.7998 64.8731 52.583 64.5765 52.3035C64.2855 52.024 64.0574 51.696 63.8919 51.3195C63.7322 50.943 63.6523 50.5295 63.6523 50.0788C63.6523 49.6282 63.7322 49.2146 63.8919 48.8381C64.0574 48.4616 64.2884 48.1336 64.585 47.8541C64.8816 47.5746 65.2296 47.3607 65.6289 47.2124C66.0282 47.0583 66.4675 46.9813 66.9466 46.9813C67.4771 46.9813 67.9535 47.0697 68.3756 47.2466C68.8034 47.4234 69.1628 47.6801 69.4537 48.0167L68.5638 48.8381C68.3471 48.6099 68.1103 48.4417 67.8536 48.3333C67.5969 48.2192 67.3174 48.1621 67.0151 48.1621C66.7242 48.1621 66.4589 48.2078 66.2193 48.299C65.9797 48.3903 65.7715 48.5215 65.5947 48.6926C65.4236 48.8638 65.2895 49.0663 65.1925 49.3002C65.1013 49.534 65.0556 49.7936 65.0556 50.0788C65.0556 50.3583 65.1013 50.615 65.1925 50.8489C65.2895 51.0828 65.4236 51.2881 65.5947 51.465C65.7715 51.6361 65.9769 51.7673 66.2108 51.8586C66.4503 51.9499 66.7127 51.9955 66.998 51.9955C67.2718 51.9955 67.537 51.9527 67.7937 51.8671C68.0561 51.7759 68.31 51.6247 68.5553 51.4136L69.3425 52.4148C69.0173 52.66 68.638 52.8483 68.2044 52.9795C67.7766 53.1107 67.3488 53.1763 66.921 53.1763ZM68.0761 52.2351V49.9847H69.3425V52.4148L68.0761 52.2351Z" fill="#444444"/>
<path d="M74.0955 53.0736V47.084H75.4817V53.0736H74.0955Z" fill="#444444"/>
<path d="M79.5814 53.0736L82.251 47.084H83.6201L86.2983 53.0736H84.8437L82.6532 47.7856H83.2008L81.0017 53.0736H79.5814ZM80.9162 51.7901L81.2841 50.7377H84.3645L84.741 51.7901H80.9162ZM82.9355 54.8705C82.7701 54.8705 82.6304 54.8192 82.5163 54.7165C82.4022 54.6138 82.3451 54.474 82.3451 54.2972C82.3451 54.1204 82.4022 53.9749 82.5163 53.8608C82.6304 53.7524 82.7701 53.6982 82.9355 53.6982C83.101 53.6982 83.2407 53.7524 83.3548 53.8608C83.4689 53.9749 83.5259 54.1204 83.5259 54.2972C83.5259 54.474 83.4689 54.6138 83.3548 54.7165C83.2407 54.8192 83.101 54.8705 82.9355 54.8705ZM82.9355 46.6647C82.4906 46.6647 82.1198 46.5478 81.8232 46.3139C81.5323 46.08 81.3782 45.7634 81.3611 45.3641H82.1997C82.2111 45.5524 82.2852 45.7007 82.4221 45.8091C82.5648 45.9175 82.7359 45.9717 82.9355 45.9717C83.1352 45.9717 83.3063 45.9175 83.4489 45.8091C83.5915 45.7007 83.6657 45.5524 83.6714 45.3641H84.5099C84.4928 45.7634 84.336 46.08 84.0393 46.3139C83.7484 46.5478 83.3805 46.6647 82.9355 46.6647Z" fill="#444444"/>
<path d="M91.325 53.0736V48.2135H89.4083V47.084H94.6278V48.2135H92.7112V53.0736H91.325Z" fill="#444444"/>
<path d="M104.728 53.0736V47.084H106.114V51.9441H109.117V53.0736H104.728Z" fill="#444444"/>
<path d="M112.603 53.0736L115.273 47.084H116.642L119.32 53.0736H117.866L115.675 47.7856H116.223L114.024 53.0736H112.603ZM113.938 51.7901L114.306 50.7377H117.387L117.763 51.7901H113.938ZM115.692 46.5963L114.144 45.3641H115.581L116.736 46.5963H115.692Z" fill="#444444"/>
<path d="M132.162 53.1763C131.7 53.1763 131.27 53.1021 130.87 52.9538C130.477 52.7998 130.134 52.583 129.843 52.3035C129.553 52.024 129.324 51.696 129.159 51.3195C128.999 50.943 128.919 50.5295 128.919 50.0788C128.919 49.6282 128.999 49.2146 129.159 48.8381C129.324 48.4616 129.553 48.1336 129.843 47.8541C130.14 47.5746 130.485 47.3607 130.879 47.2124C131.272 47.0583 131.703 46.9813 132.171 46.9813C132.69 46.9813 133.158 47.0726 133.574 47.2551C133.996 47.432 134.35 47.6944 134.635 48.0423L133.745 48.8638C133.54 48.6299 133.312 48.4559 133.061 48.3418C132.81 48.222 132.536 48.1621 132.239 48.1621C131.96 48.1621 131.703 48.2078 131.469 48.299C131.235 48.3903 131.033 48.5215 130.862 48.6926C130.691 48.8638 130.556 49.0663 130.46 49.3002C130.368 49.534 130.323 49.7936 130.323 50.0788C130.323 50.364 130.368 50.6236 130.46 50.8575C130.556 51.0913 130.691 51.2938 130.862 51.465C131.033 51.6361 131.235 51.7673 131.469 51.8586C131.703 51.9499 131.96 51.9955 132.239 51.9955C132.536 51.9955 132.81 51.9384 133.061 51.8244C133.312 51.7046 133.54 51.5249 133.745 51.2853L134.635 52.1067C134.35 52.4547 133.996 52.7199 133.574 52.9025C133.158 53.085 132.687 53.1763 132.162 53.1763Z" fill="#444444"/>
<path d="M143.144 47.084H144.53V53.0736H143.144V47.084ZM140.423 53.0736H139.037V47.084H140.423V53.0736ZM143.246 50.6179H140.32V49.4456H143.246V50.6179Z" fill="#444444"/>
<path d="M152.074 53.1763C151.224 53.1763 150.559 52.9396 150.08 52.4661C149.601 51.9926 149.361 51.3167 149.361 50.4382V47.084H150.747V50.3868C150.747 50.9573 150.864 51.368 151.098 51.619C151.332 51.87 151.66 51.9955 152.082 51.9955C152.504 51.9955 152.832 51.87 153.066 51.619C153.3 51.368 153.417 50.9573 153.417 50.3868V47.084H154.786V50.4382C154.786 51.3167 154.546 51.9926 154.067 52.4661C153.588 52.9396 152.924 53.1763 152.074 53.1763Z" fill="#444444"/>
<path d="M161.026 53.0736V50.6264L161.343 51.465L158.708 47.084H160.179L162.199 50.4467H161.352L163.38 47.084H164.74L162.105 51.465L162.413 50.6264V53.0736H161.026Z" fill="#444444"/>
<path d="M170.01 49.497H172.894V50.5751H170.01V49.497ZM170.113 51.9613H173.373V53.0736H168.735V47.084H173.262V48.1964H170.113V51.9613ZM169.283 46.5963L170.412 45.3641H171.593L172.723 46.5963H171.747L170.566 45.5695H171.439L170.258 46.5963H169.283Z" fill="#444444"/>
<path d="M177.941 53.0736V47.084H179.088L182.622 51.3965H182.066V47.084H183.435V53.0736H182.297L178.754 48.7611H179.31V53.0736H177.941Z" fill="#444444"/>
<path d="M194.206 53.0736V47.084H195.352L198.886 51.3965H198.33V47.084H199.699V53.0736H198.561L195.019 48.7611H195.575V53.0736H194.206Z" fill="#444444"/>
<path d="M207.474 53.1763C207 53.1763 206.564 53.1021 206.165 52.9538C205.771 52.7998 205.426 52.583 205.129 52.3035C204.838 52.024 204.61 51.696 204.445 51.3195C204.285 50.943 204.205 50.5295 204.205 50.0788C204.205 49.6282 204.285 49.2146 204.445 48.8381C204.61 48.4616 204.841 48.1336 205.138 47.8541C205.435 47.5746 205.782 47.3607 206.182 47.2124C206.581 47.0583 207.02 46.9813 207.499 46.9813C208.03 46.9813 208.506 47.0697 208.928 47.2466C209.356 47.4234 209.716 47.6801 210.007 48.0167L209.117 48.8381C208.9 48.6099 208.663 48.4417 208.406 48.3333C208.15 48.2192 207.87 48.1621 207.568 48.1621C207.277 48.1621 207.012 48.2078 206.772 48.299C206.533 48.3903 206.324 48.5215 206.148 48.6926C205.976 48.8638 205.842 49.0663 205.745 49.3002C205.654 49.534 205.608 49.7936 205.608 50.0788C205.608 50.3583 205.654 50.615 205.745 50.8489C205.842 51.0828 205.976 51.2881 206.148 51.465C206.324 51.6361 206.53 51.7673 206.764 51.8586C207.003 51.9499 207.266 51.9955 207.551 51.9955C207.825 51.9955 208.09 51.9527 208.347 51.8671C208.609 51.7759 208.863 51.6247 209.108 51.4136L209.895 52.4148C209.57 52.66 209.191 52.8483 208.757 52.9795C208.329 53.1107 207.902 53.1763 207.474 53.1763ZM208.629 52.2351V49.9847H209.895V52.4148L208.629 52.2351Z" fill="#444444"/>
<path d="M218.756 47.084H220.142V53.0736H218.756V47.084ZM216.035 53.0736H214.648V47.084H216.035V53.0736ZM218.858 50.6179H215.932V49.4456H218.858V50.6179Z" fill="#444444"/>
<path d="M225.024 53.0736V47.084H226.41V53.0736H225.024Z" fill="#444444"/>
<path d="M232.572 49.497H235.456V50.5751H232.572V49.497ZM232.675 51.9613H235.935V53.0736H231.297V47.084H235.824V48.1964H232.675V51.9613ZM233.608 54.8705C233.442 54.8705 233.302 54.8192 233.188 54.7165C233.074 54.6138 233.017 54.474 233.017 54.2972C233.017 54.1204 233.074 53.9749 233.188 53.8608C233.302 53.7524 233.442 53.6982 233.608 53.6982C233.773 53.6982 233.913 53.7524 234.027 53.8608C234.141 53.9749 234.198 54.1204 234.198 54.2972C234.198 54.474 234.141 54.6138 234.027 54.7165C233.913 54.8192 233.773 54.8705 233.608 54.8705ZM231.845 46.5963L232.974 45.3641H234.155L235.285 46.5963H234.309L233.128 45.5695H234.001L232.82 46.5963H231.845Z" fill="#444444"/>
<path d="M240.503 53.0736V47.084H243.096C243.632 47.084 244.094 47.1724 244.482 47.3493C244.87 47.5204 245.17 47.7685 245.381 48.0937C245.592 48.4188 245.697 48.8067 245.697 49.2574C245.697 49.7023 245.592 50.0874 245.381 50.4125C245.17 50.7377 244.87 50.9887 244.482 51.1655C244.094 51.3366 243.632 51.4222 243.096 51.4222H241.273L241.889 50.7976V53.0736H240.503ZM241.889 50.9516L241.273 50.2927H243.019C243.447 50.2927 243.766 50.2015 243.977 50.0189C244.188 49.8364 244.294 49.5825 244.294 49.2574C244.294 48.9265 244.188 48.6698 243.977 48.4873C243.766 48.3047 243.447 48.2135 243.019 48.2135H241.273L241.889 47.5546V50.9516Z" fill="#444444"/>
</svg>
