<svg width="247" height="236" viewBox="0 0 247 236" fill="none" xmlns="http://www.w3.org/2000/svg">
<g clip-path="url(#clip0_279_1982)">
<path d="M114.138 231.567L120.284 231.567L123.208 208.11L114.136 208.11L114.138 231.567Z" fill="#FFB6B6"/>
<path d="M135.197 231.429C135.388 231.748 135.489 232.778 135.489 233.148C135.489 234.288 134.555 235.212 133.403 235.212H114.368C113.582 235.212 112.944 234.582 112.944 233.804V233.02C112.944 233.02 112.003 230.664 113.941 227.759C113.941 227.759 116.351 230.033 119.952 226.471L121.013 224.568L128.699 230.129L132.959 230.648C133.891 230.762 134.717 230.63 135.197 231.429H135.197Z" fill="#2F2E41"/>
<path d="M90.814 231.567L96.9607 231.567L99.8846 208.11L90.8128 208.11L90.814 231.567Z" fill="#FFB6B6"/>
<path d="M111.873 231.429C112.065 231.748 112.165 232.778 112.165 233.148C112.165 234.288 111.231 235.212 110.079 235.212H91.0439C90.2579 235.212 89.6207 234.582 89.6207 233.804V233.02C89.6207 233.02 88.6791 230.664 90.6178 227.759C90.6178 227.759 93.0273 230.033 96.6279 226.471L97.6896 224.568L105.375 230.129L109.635 230.648C110.567 230.762 111.394 230.63 111.873 231.429H111.873Z" fill="#2F2E41"/>
<path d="M86.2872 105.563L78.5127 122.999L88.3605 218.38L100.541 219.15L105.464 134.793L110.129 219.406L124.642 217.868L128.084 110.455L86.2872 105.563Z" fill="#2F2E41"/>
<path d="M209.283 189.199C208.845 188.468 206.952 189.25 206.604 188.588C206.257 187.927 208.016 186.922 209.021 184.624C209.202 184.209 210.344 181.598 209.499 180.792C207.896 179.265 200.563 185.568 197.997 183.505C197.434 183.053 197.041 182.149 195.336 180.682C194.658 180.098 194.248 179.835 193.851 179.933C193.288 180.072 193.243 180.817 192.64 182.283C191.734 184.482 191.199 184.349 190.671 186.103C190.279 187.405 190.369 188.162 189.908 188.31C189.256 188.519 188.656 187.137 187.829 187.261C186.986 187.387 186.476 188.995 186.315 190.199C186.013 192.459 186.851 193.95 187.316 195.518C187.821 197.221 188.121 199.812 186.954 203.48L175.408 235.667C177.957 229.062 185.338 210.957 188.439 204.229C189.335 202.287 190.323 200.317 192.353 199.54C194.307 198.791 196.991 199.238 200.413 198.422C200.812 198.327 201.921 198.048 202.061 197.403C202.176 196.869 201.524 196.571 201.624 196.072C201.759 195.401 203.041 195.393 204.618 194.62C205.729 194.075 206.422 193.426 207.017 192.869C207.197 192.7 209.865 190.17 209.283 189.199H209.283Z" fill="#F2F2F2"/>
<path d="M163.856 206.143C163.367 206.145 163.209 207.29 162.78 207.267C162.352 207.245 162.361 206.101 161.511 204.95C161.358 204.743 160.392 203.434 159.748 203.613C158.528 203.95 159.539 209.329 157.775 209.98C157.388 210.123 156.827 210.054 155.607 210.458C155.122 210.619 154.873 210.742 154.807 210.963C154.713 211.277 155.07 211.513 155.623 212.229C156.453 213.304 156.232 213.525 156.95 214.288C157.483 214.853 157.885 215.028 157.825 215.295C157.74 215.672 156.882 215.565 156.705 216.002C156.524 216.448 157.175 217.159 157.725 217.585C158.759 218.384 159.741 218.406 160.653 218.633C161.643 218.879 163.015 219.481 164.498 221.106L177.134 236C174.593 232.857 167.741 224.049 165.298 220.601C164.593 219.606 163.901 218.558 164.101 217.348C164.294 216.183 165.29 215.008 165.872 213.111C165.94 212.89 166.122 212.271 165.842 212.017C165.611 211.807 165.275 212.038 165.056 211.845C164.762 211.586 165.128 210.961 165.199 209.972C165.25 209.275 165.128 208.752 165.023 208.302C164.991 208.166 164.506 206.14 163.856 206.143V206.143H163.856Z" fill="#F2F2F2"/>
<path d="M173.6 208.307L173.306 205.708L173.44 205.511C174.062 204.6 174.379 203.71 174.383 202.866C174.384 202.731 174.377 202.597 174.371 202.46C174.346 201.918 174.314 201.244 174.669 200.459C174.868 200.021 175.428 199.007 176.269 199.132C176.495 199.164 176.666 199.266 176.796 199.387C176.815 199.357 176.835 199.327 176.856 199.294C177.118 198.899 177.325 198.729 177.525 198.566C177.678 198.441 177.837 198.311 178.085 198.005C178.195 197.871 178.28 197.753 178.351 197.654C178.569 197.354 178.853 196.996 179.354 197.003C179.889 197.028 180.169 197.466 180.355 197.755C180.687 198.273 180.837 198.645 180.937 198.892C180.973 198.983 181.014 199.084 181.035 199.116C181.208 199.367 182.61 199.132 183.138 199.047C184.325 198.851 185.352 198.682 185.775 199.422C186.078 199.952 185.853 200.652 185.085 201.559C184.846 201.842 184.592 202.056 184.366 202.224C184.553 202.335 184.72 202.504 184.788 202.77C184.948 203.4 184.401 204.031 183.162 204.649C182.855 204.803 182.441 205.009 181.86 205.108C181.587 205.155 181.341 205.166 181.13 205.172C181.126 205.293 181.097 205.423 181.023 205.557C180.806 205.953 180.353 206.141 179.67 206.096C178.919 206.057 178.301 205.915 177.756 205.791C177.279 205.683 176.869 205.591 176.547 205.613C175.95 205.66 175.489 206.133 174.949 206.747L173.6 208.307H173.6H173.6Z" fill="#F2F2F2"/>
<path d="M174.965 192.833L172.499 193.774L172.272 193.695C171.223 193.331 170.273 193.253 169.446 193.463C169.315 193.497 169.185 193.537 169.053 193.578C168.529 193.74 167.879 193.941 167.021 193.8C166.542 193.721 165.409 193.443 165.318 192.606C165.291 192.381 165.348 192.191 165.433 192.036C165.399 192.026 165.365 192.015 165.327 192.003C164.874 191.852 164.656 191.697 164.446 191.547C164.284 191.432 164.118 191.313 163.755 191.153C163.596 191.083 163.459 191.031 163.344 190.988C162.996 190.856 162.574 190.674 162.453 190.193C162.342 189.675 162.699 189.295 162.935 189.044C163.357 188.595 163.683 188.357 163.9 188.199C163.979 188.141 164.068 188.076 164.093 188.048C164.295 187.819 163.71 186.537 163.492 186.053C163 184.967 162.574 184.027 163.19 183.435C163.631 183.01 164.373 183.048 165.455 183.552C165.791 183.71 166.066 183.899 166.287 184.072C166.348 183.865 166.471 183.662 166.714 183.529C167.289 183.217 168.045 183.58 168.963 184.609C169.192 184.864 169.498 185.208 169.742 185.739C169.857 185.988 169.93 186.221 169.99 186.421C170.109 186.395 170.244 186.389 170.394 186.426C170.835 186.534 171.134 186.919 171.263 187.584C171.416 188.312 171.434 188.94 171.451 189.494C171.466 189.977 171.481 190.393 171.583 190.696C171.781 191.255 172.361 191.576 173.098 191.937L174.965 192.833L174.965 192.833Z" fill="#F2F2F2"/>
<path d="M173.6 185.176L173.306 182.577L173.44 182.38C174.062 181.469 174.379 180.579 174.383 179.735C174.384 179.6 174.377 179.466 174.371 179.329C174.346 178.787 174.314 178.113 174.669 177.328C174.868 176.89 175.428 175.876 176.269 176.001C176.495 176.033 176.666 176.135 176.796 176.256C176.815 176.226 176.835 176.196 176.856 176.163C177.118 175.768 177.325 175.598 177.525 175.435C177.678 175.31 177.837 175.18 178.085 174.874C178.195 174.74 178.28 174.622 178.351 174.523C178.569 174.223 178.853 173.865 179.354 173.872C179.889 173.897 180.169 174.335 180.355 174.625C180.687 175.142 180.837 175.514 180.937 175.761C180.973 175.852 181.014 175.953 181.035 175.985C181.208 176.236 182.61 176.001 183.138 175.916C184.325 175.72 185.352 175.551 185.775 176.291C186.078 176.821 185.853 177.521 185.085 178.428C184.846 178.711 184.592 178.925 184.366 179.093C184.553 179.204 184.72 179.373 184.788 179.639C184.948 180.269 184.401 180.9 183.162 181.518C182.855 181.672 182.441 181.878 181.86 181.977C181.587 182.024 181.341 182.035 181.13 182.041C181.126 182.162 181.097 182.292 181.023 182.426C180.806 182.822 180.353 183.01 179.67 182.965C178.919 182.926 178.301 182.784 177.756 182.66C177.279 182.552 176.869 182.46 176.547 182.482C175.95 182.529 175.489 183.002 174.949 183.616L173.6 185.176H173.6H173.6Z" fill="#F2F2F2"/>
<path d="M176.288 235.624L175.737 235.283L175.604 234.654L175.737 235.283L175.095 235.356C175.085 235.297 175.05 235.161 174.998 234.949C174.71 233.787 173.834 230.251 173.104 224.681C172.594 220.794 172.305 216.797 172.246 212.8C172.186 208.796 172.378 205.766 172.531 203.33C172.647 201.493 172.788 199.743 172.926 198.039C173.294 193.486 173.641 189.186 173.383 184.424C173.326 183.361 173.206 181.149 171.9 178.795C171.142 177.429 170.098 176.217 168.796 175.193L169.606 174.187C171.042 175.318 172.197 176.661 173.039 178.177C174.487 180.787 174.618 183.198 174.68 184.357C174.943 189.202 174.592 193.544 174.221 198.141C174.084 199.839 173.943 201.581 173.827 203.41C173.675 205.823 173.486 208.828 173.545 212.78C173.603 216.729 173.888 220.677 174.391 224.516C175.113 230.015 175.976 233.499 176.26 234.643C176.411 235.254 176.442 235.382 176.288 235.624V235.624H176.288Z" fill="#F2F2F2"/>
<path d="M166.414 177.235C166.361 177.235 166.307 177.234 166.253 177.23C165.147 177.171 164.122 176.516 163.208 175.283C162.779 174.704 162.56 174.042 162.122 172.723C162.054 172.52 161.724 171.488 161.524 170.069C161.393 169.142 161.409 168.754 161.595 168.411C161.801 168.03 162.135 167.764 162.51 167.584C162.494 167.461 162.507 167.335 162.561 167.205C162.782 166.669 163.371 166.74 163.689 166.774C163.85 166.794 164.051 166.82 164.268 166.809C164.609 166.792 164.793 166.692 165.07 166.541C165.336 166.397 165.667 166.218 166.157 166.119C167.123 165.919 167.933 166.19 168.2 166.279C169.605 166.742 170.298 167.823 171.099 169.074C171.259 169.325 171.808 170.238 172.17 171.491C172.431 172.394 172.394 172.796 172.316 173.095C172.156 173.708 171.778 174.06 170.82 174.835C169.819 175.647 169.317 176.054 168.886 176.301C167.882 176.875 167.251 177.235 166.414 177.235V177.235Z" fill="#F2F2F2"/>
<path d="M221.855 235.04C221.855 235.278 221.66 235.471 221.419 235.471H0.435391C0.194934 235.471 0 235.278 0 235.04C0 234.802 0.194929 234.609 0.435391 234.609H221.419C221.66 234.609 221.855 234.802 221.855 235.04Z" fill="#E6E6E6"/>
<path d="M116.918 36.0786L101.318 33.2582L98.1674 36.3754L82.1408 43.0014L84.7324 92.7434C84.7324 92.7434 79.5493 96.1594 82.1408 100.861C84.7324 105.564 84.2141 111.204 84.2141 111.204H128.084L126.197 83.0001L131.38 47.1039L119.269 41.431L116.918 36.0786H116.918V36.0786Z" fill="#0093D5"/>
<path d="M114.835 96.1399C110.796 98.2259 108.609 101.979 109.951 104.522C111.294 107.065 115.656 107.435 119.696 105.348C121.322 104.536 122.727 103.351 123.795 101.892L140.797 92.8394L136.334 85.0359L120.046 94.7882C118.225 94.8206 116.438 95.284 114.835 96.1399H114.835H114.835Z" fill="#FFB6B6"/>
<path d="M128.27 47.6166C128.27 47.6166 132.935 44.5398 136.044 52.7447C138.498 59.2176 143.048 78.2976 144.86 86.0641C145.341 88.1258 144.645 90.2794 143.046 91.6852L140.968 93.5126L130.861 100.948L123.97 91.0271L132.34 86.0345L122.795 65.5488L128.27 47.6166L128.27 47.6166H128.27V47.6166Z" fill="#0093D5"/>
<path d="M128.456 90.0432V79.5271C128.456 78.9206 128.954 78.4272 129.567 78.4272H134.711C135.323 78.4272 135.822 78.9206 135.822 79.5271V90.0432C135.822 90.6496 135.323 91.143 134.711 91.143H129.567C128.954 91.143 128.456 90.6496 128.456 90.0432H128.456H128.456Z" fill="#0093D5"/>
<path d="M35.8063 155.552L18.5914 155.787L11.6897 79.647C11.5223 77.799 12.1256 75.9304 13.3452 74.5207L30.2728 54.9544C32.6424 52.2157 36.6714 51.7215 39.645 53.8061L60.8465 68.6683C62.5761 69.8807 63.648 71.7764 63.787 73.8692L79.2632 125.311L77.1875 142.466L77.2078 142.49L79.661 154.953L35.8063 155.552H35.8063Z" fill="#E6E6E6"/>
<path d="M32.2004 72.6582L31.9232 69.1243C31.8501 68.1915 32.5576 67.3736 33.5004 67.3013L38.5189 66.9159C39.4617 66.8435 40.2882 67.5435 40.3613 68.4764L40.6385 72.0103C40.7117 72.9431 40.0043 73.7609 39.0615 73.8333L34.043 74.2186C33.1002 74.291 32.2736 73.591 32.2004 72.6582H32.2004Z" fill="#0093D5"/>
<path d="M23.7443 100.904L22.7186 87.8286C22.6455 86.8957 23.353 86.0779 24.2958 86.0055L31.7252 85.4351C32.668 85.3627 33.4945 86.0627 33.5677 86.9955L34.5933 100.071C34.6664 101.004 33.959 101.821 33.0162 101.894L25.5868 102.464C24.644 102.537 23.8174 101.837 23.7443 100.904Z" fill="#3F3D56"/>
<path d="M42.9384 130.221C42.038 130.258 41.2573 129.593 41.161 128.706L39.7941 116.097C39.7357 115.559 39.9325 115.039 40.3337 114.671C40.735 114.304 41.2737 114.15 41.8117 114.248L42.1952 114.318C42.9579 114.458 43.5326 115.09 43.5926 115.855L44.5762 128.394C44.6125 128.857 44.4609 129.304 44.1493 129.651C43.8516 129.983 43.4457 130.182 43.0007 130.217C42.98 130.218 42.9593 130.22 42.9384 130.221Z" fill="#3F3D56"/>
<path d="M27.2136 129.674L26.185 116.56C26.1124 115.635 26.787 114.836 27.7206 114.741L34.4603 114.06C35.3953 113.975 36.2398 114.641 36.3401 115.567L37.7704 128.814C37.82 129.273 37.6828 129.723 37.3838 130.078C37.0851 130.434 36.6638 130.65 36.1978 130.686L29.0562 131.234C28.1134 131.306 27.2868 130.606 27.2136 129.674L27.2136 129.674Z" fill="#3F3D56"/>
<path d="M67.8282 135.57L73.8509 144.472L75.2797 154.895L79.5147 154.836L77.0952 142.543L67.4805 131.283C66.836 132.675 66.9677 134.297 67.8282 135.57Z" fill="#CCCCCC"/>
<path d="M74.8754 151.911L57.7164 153.463L57.7384 153.701L74.8974 152.15L74.8754 151.911Z" fill="#3F3D56"/>
<path d="M73.6682 149.886L57.3914 151.262L57.412 151.501L73.6888 150.124L73.6682 149.886Z" fill="#3F3D56"/>
<path d="M72.6543 147.8L57.0988 149.297L57.1222 149.535L72.6777 148.038L72.6543 147.8Z" fill="#3F3D56"/>
<path d="M72.0028 145.698L57.0804 147.338L57.1071 147.576L72.0295 145.935L72.0028 145.698Z" fill="#3F3D56"/>
<path d="M71.13 143.848L56.795 145.452L56.8222 145.69L71.1572 144.086L71.13 143.848Z" fill="#3F3D56"/>
<path d="M70.0381 142.245L56.0378 143.32L56.0565 143.559L70.0568 142.484L70.0381 142.245Z" fill="#3F3D56"/>
<path d="M69.1821 140.627L55.5883 141.83L55.6099 142.068L69.2036 140.866L69.1821 140.627Z" fill="#3F3D56"/>
<path d="M68.3253 139.015L55.1752 140.46L55.2019 140.698L68.352 139.252L68.3253 139.015Z" fill="#3F3D56"/>
<path d="M67.715 137.391L54.7137 138.617L54.7366 138.855L67.7379 137.629L67.715 137.391Z" fill="#3F3D56"/>
<path d="M66.6191 135.813L54.1836 137.155L54.2098 137.393L66.6454 136.051L66.6191 135.813Z" fill="#3F3D56"/>
<path d="M66.0255 134.394L53.6791 135.463L53.7001 135.701L66.0466 134.633L66.0255 134.394Z" fill="#3F3D56"/>
<path d="M52.3815 130.501L51.1127 114.325C51.0395 113.392 51.747 112.574 52.6899 112.502L60.6014 111.894C61.5442 111.822 62.3707 112.522 62.4439 113.455L63.7127 129.631C63.7859 130.563 63.0785 131.381 62.1357 131.454L54.2241 132.061C53.2813 132.133 52.4547 131.433 52.3815 130.501H52.3815Z" fill="#0093D5"/>
<path d="M35.8063 155.552L21.7321 155.745L21.6187 155.746L20.7775 145.023C20.6711 143.666 21.6997 142.477 23.0705 142.372L36.9037 141.31C38.2744 141.205 39.4761 142.222 39.5825 143.579L40.4934 155.192L40.3729 155.202L35.8063 155.552V155.552Z" fill="#CCCCCC"/>
<path d="M51.0445 101.087L50.075 88.7276C50.0019 87.7948 50.7094 86.977 51.6522 86.9046L54.2598 86.7044C55.2026 86.632 56.0291 87.332 56.1023 88.2648L57.0717 100.625C57.1449 101.557 56.4375 102.375 55.4947 102.447L52.8871 102.648C51.9443 102.72 51.1177 102.02 51.0445 101.087Z" fill="#3F3D56"/>
<path d="M57.9455 155.052L56.399 144.612L53.4433 134.761L52.6254 132.064C51.3215 131.326 49.7264 132.381 49.9172 133.855L50.0681 135.02L53.0237 144.872L54.5702 155.311" fill="#CCCCCC"/>
<path d="M201.957 73.1183C210.371 73.1183 217.191 66.37 217.191 58.0457C217.191 49.7213 210.371 42.973 201.957 42.973C193.544 42.973 186.723 49.7213 186.723 58.0457C186.723 66.37 193.544 73.1183 201.957 73.1183Z" fill="#FF6884"/>
<path d="M186.912 153.628L169.698 153.863L162.796 77.7228C162.628 75.8748 163.232 74.0062 164.451 72.5965L181.379 53.0302C183.749 50.2915 187.778 49.7973 190.751 51.8819L211.953 66.7441C213.682 67.9565 214.754 69.8522 214.893 71.945L230.369 123.387L228.294 140.542L228.314 140.566L230.767 153.029L186.912 153.628H186.912Z" fill="#E6E6E6"/>
<path d="M183.307 70.734L183.029 67.2001C182.956 66.2673 183.664 65.4495 184.607 65.3771L189.625 64.9917C190.568 64.9193 191.394 65.6194 191.467 66.5522L191.745 70.0861C191.818 71.0189 191.11 71.8367 190.168 71.9091L185.149 72.2945C184.206 72.3668 183.38 71.6668 183.307 70.734V70.734Z" fill="#0093D5"/>
<path d="M174.85 98.9795L173.825 85.9044C173.752 84.9716 174.459 84.1537 175.402 84.0813L182.831 83.5109C183.774 83.4385 184.601 84.1385 184.674 85.0713L185.699 98.1465C185.773 99.0793 185.065 99.8971 184.122 99.9695L176.693 100.54C175.75 100.612 174.924 99.9123 174.85 98.9795V98.9795Z" fill="#3F3D56"/>
<path d="M194.045 128.296C193.144 128.334 192.363 127.668 192.267 126.782L190.9 114.173C190.842 113.635 191.039 113.115 191.44 112.747C191.841 112.379 192.38 112.226 192.918 112.324L193.301 112.394C194.064 112.534 194.639 113.166 194.699 113.931L195.682 126.47C195.719 126.933 195.567 127.379 195.255 127.727C194.958 128.059 194.552 128.258 194.107 128.292C194.086 128.294 194.065 128.295 194.045 128.296Z" fill="#3F3D56"/>
<path d="M178.32 127.749L177.291 114.636C177.219 113.711 177.893 112.911 178.827 112.817L185.566 112.135C186.501 112.051 187.346 112.717 187.446 113.643L188.877 126.889C188.926 127.349 188.789 127.798 188.49 128.154C188.191 128.51 187.77 128.726 187.304 128.761L180.162 129.31C179.22 129.382 178.393 128.682 178.32 127.749Z" fill="#3F3D56"/>
<path d="M218.934 133.645L224.957 142.548L226.386 152.97L230.621 152.912L228.201 140.619L218.587 129.359C217.942 130.75 218.074 132.373 218.934 133.645Z" fill="#CCCCCC"/>
<path d="M225.981 149.987L208.822 151.538L208.844 151.777L226.003 150.225L225.981 149.987Z" fill="#3F3D56"/>
<path d="M224.774 147.962L208.498 149.338L208.518 149.577L224.795 148.2L224.774 147.962Z" fill="#3F3D56"/>
<path d="M223.76 145.876L208.205 147.373L208.228 147.611L223.784 146.114L223.76 145.876Z" fill="#3F3D56"/>
<path d="M223.109 143.773L208.187 145.414L208.213 145.651L223.136 144.011L223.109 143.773Z" fill="#3F3D56"/>
<path d="M222.236 141.924L207.901 143.528L207.928 143.765L222.263 142.162L222.236 141.924Z" fill="#3F3D56"/>
<path d="M221.144 140.321L207.144 141.396L207.163 141.635L221.163 140.56L221.144 140.321Z" fill="#3F3D56"/>
<path d="M220.288 138.703L206.694 139.905L206.716 140.144L220.31 138.941L220.288 138.703Z" fill="#3F3D56"/>
<path d="M219.431 137.09L206.281 138.536L206.308 138.774L219.458 137.328L219.431 137.09Z" fill="#3F3D56"/>
<path d="M218.821 135.466L205.82 136.692L205.843 136.931L218.844 135.705L218.821 135.466Z" fill="#3F3D56"/>
<path d="M217.725 133.888L205.29 135.231L205.316 135.469L217.751 134.126L217.725 133.888Z" fill="#3F3D56"/>
<path d="M217.132 132.47L204.785 133.538L204.806 133.777L217.153 132.709L217.132 132.47Z" fill="#3F3D56"/>
<path d="M203.488 128.577L202.219 112.4C202.146 111.468 202.853 110.65 203.796 110.577L211.707 109.97C212.65 109.897 213.477 110.598 213.55 111.53L214.819 127.707C214.892 128.639 214.185 129.457 213.242 129.529L205.33 130.137C204.387 130.209 203.561 129.509 203.488 128.577Z" fill="#0093D5"/>
<path d="M186.912 153.628L172.838 153.821L172.725 153.822L171.884 143.098C171.777 141.742 172.806 140.553 174.177 140.448L188.01 139.386C189.381 139.28 190.582 140.298 190.689 141.654L191.6 153.268L191.479 153.277L186.912 153.628Z" fill="#CCCCCC"/>
<path d="M202.151 99.1632L201.181 86.8035C201.108 85.8707 201.815 85.0529 202.758 84.9805L205.366 84.7803C206.309 84.7079 207.135 85.4079 207.208 86.3407L208.178 98.7004C208.251 99.6331 207.544 100.451 206.601 100.523L203.993 100.724C203.05 100.796 202.224 100.096 202.151 99.1632Z" fill="#3F3D56"/>
<path d="M209.052 153.128L207.505 142.688L204.549 132.836L203.732 130.14C202.428 129.401 200.832 130.456 201.023 131.931L201.174 133.096L204.13 142.947L205.676 153.387" fill="#CCCCCC"/>
<path d="M126.582 154.421L109.367 154.656L102.465 78.5158C102.298 76.6677 102.901 74.7991 104.121 73.3894L121.048 53.8231C123.418 51.084 127.447 50.5904 130.421 52.6748L151.622 67.537C153.352 68.7494 162.657 75.63 162.796 77.7228L158.374 130.105L167.963 141.335L167.983 141.359L170.437 153.822L126.582 154.421L126.582 154.421Z" fill="#E6E6E6"/>
<path d="M158.604 134.438L164.626 143.341L166.055 153.763L170.29 153.705L167.871 141.412L158.256 130.152C157.612 131.543 157.743 133.166 158.604 134.438V134.438Z" fill="#CCCCCC"/>
<path d="M165.651 150.78L148.492 152.331L148.514 152.569L165.673 151.018L165.651 150.78Z" fill="#3F3D56"/>
<path d="M164.444 148.755L148.167 150.131L148.188 150.37L164.465 148.993L164.444 148.755Z" fill="#3F3D56"/>
<path d="M163.429 146.668L147.874 148.166L147.897 148.404L163.453 146.907L163.429 146.668Z" fill="#3F3D56"/>
<path d="M162.779 144.566L147.856 146.207L147.883 146.444L162.805 144.804L162.779 144.566Z" fill="#3F3D56"/>
<path d="M161.906 142.717L147.571 144.321L147.598 144.558L161.933 142.955L161.906 142.717Z" fill="#3F3D56"/>
<path d="M160.814 141.114L146.813 142.189L146.832 142.428L160.833 141.353L160.814 141.114Z" fill="#3F3D56"/>
<path d="M126.582 154.421L112.508 154.613L112.394 154.615L111.553 143.891C111.447 142.535 112.475 141.346 113.846 141.241L127.679 140.179C129.05 140.073 130.252 141.091 130.358 142.447L131.269 154.061L131.148 154.07L126.582 154.421H126.582Z" fill="#CCCCCC"/>
<path d="M159.958 139.496L146.364 140.698L146.386 140.937L159.979 139.734L159.958 139.496Z" fill="#3F3D56"/>
<path d="M159.101 137.883L145.951 139.329L145.978 139.567L159.128 138.121L159.101 137.883Z" fill="#3F3D56"/>
<path d="M158.49 136.259L145.489 137.485L145.512 137.724L158.513 136.497L158.49 136.259Z" fill="#3F3D56"/>
<path d="M157.394 134.681L144.959 136.024L144.985 136.262L157.421 134.919L157.394 134.681Z" fill="#3F3D56"/>
<path d="M156.801 133.263L144.455 134.331L144.476 134.57L156.822 133.502L156.801 133.263Z" fill="#3F3D56"/>
<path d="M110.896 130.365C110.534 130.069 110.315 129.651 110.278 129.188L109.295 116.649C109.235 115.884 109.704 115.172 110.436 114.917L110.804 114.789C111.32 114.61 111.876 114.68 112.33 114.982C112.784 115.284 113.06 115.768 113.086 116.308L113.701 128.975C113.745 129.866 113.077 130.642 112.182 130.743C112.161 130.745 112.14 130.747 112.119 130.748C111.675 130.782 111.242 130.647 110.896 130.365H110.896Z" fill="#3F3D56"/>
<path d="M131.274 113.716C130.929 114.032 130.76 114.478 130.81 114.94L132.177 127.549C132.26 128.311 132.93 128.882 133.704 128.85C134.111 128.835 134.476 128.659 134.744 128.361C135.012 128.063 135.142 127.679 135.111 127.281L134.127 114.742C134.076 114.085 133.582 113.542 132.927 113.422L132.543 113.352C132.413 113.328 132.284 113.321 132.156 113.331C131.83 113.356 131.522 113.489 131.274 113.716V113.716Z" fill="#3F3D56"/>
<path d="M143.157 129.369L141.888 113.193C141.815 112.26 142.523 111.443 143.465 111.37L151.377 110.763C152.32 110.69 153.146 111.39 153.219 112.323L154.488 128.499C154.561 129.432 153.854 130.25 152.911 130.322L145 130.93C144.057 131.002 143.23 130.302 143.157 129.369H143.157Z" fill="#0093D5"/>
<path d="M148.721 153.921L147.175 143.481L144.219 133.629L143.401 130.932C142.097 130.194 140.502 131.249 140.693 132.724L140.844 133.888L143.799 143.74L145.346 154.18" fill="#CCCCCC"/>
<path d="M246.994 152.71L26.5326 155.537L26.5389 156.016L247 153.188L246.994 152.71Z" fill="#CCCCCC"/>
<path d="M141.82 99.956L140.851 87.5964C140.777 86.6636 141.485 85.8458 142.428 85.7734L145.035 85.5731C145.978 85.5007 146.805 86.2008 146.878 87.1336L147.847 99.4932C147.92 100.426 147.213 101.244 146.27 101.316L143.663 101.516C142.72 101.589 141.893 100.889 141.82 99.956Z" fill="#3F3D56"/>
<path d="M114.52 99.7725L113.494 86.6973C113.421 85.7645 114.129 84.9467 115.071 84.8743L122.501 84.3039C123.443 84.2315 124.27 84.9315 124.343 85.8643L125.369 98.9395C125.442 99.8723 124.734 100.69 123.792 100.762L116.363 101.333C115.42 101.405 114.593 100.705 114.52 99.7725Z" fill="#3F3D56"/>
<path d="M122.976 71.527L122.699 67.9931C122.626 67.0602 123.333 66.2424 124.276 66.17L129.294 65.7847C130.237 65.7123 131.064 66.4123 131.137 67.3451L131.414 70.8791C131.487 71.8119 130.78 72.6297 129.837 72.7021L124.819 73.0874C123.876 73.1598 123.049 72.4598 122.976 71.527V71.527Z" fill="#0093D5"/>
<path d="M100.179 82.3675C105.632 82.3675 110.053 77.9936 110.053 72.5981C110.053 67.2026 105.632 62.8287 100.179 62.8287C94.7255 62.8287 90.3047 67.2026 90.3047 72.5981C90.3047 77.9936 94.7255 82.3675 100.179 82.3675Z" fill="#0093D5"/>
<path d="M106.587 62.3061C106.01 61.9724 105.131 62.1456 104.814 62.766C103.563 65.2141 102.652 67.7768 102.058 70.4297C101.109 69.2733 100.161 68.1169 99.213 66.9604C98.7718 66.4223 97.8392 66.5066 97.3806 66.9604C96.8429 67.4924 96.9382 68.234 97.3806 68.7735C98.89 70.6143 100.399 72.4551 101.909 74.2959C102.228 74.6847 102.897 74.7469 103.324 74.561C103.84 74.3367 104.05 73.9223 104.121 73.3894C104.549 70.1521 105.565 66.9709 107.052 64.0601C107.367 63.4424 107.216 62.6704 106.587 62.3061L106.587 62.3061Z" fill="white"/>
<path d="M105.611 94.0298C110.043 95.0766 114.182 93.6625 114.854 90.8718C115.527 88.0811 112.48 84.971 108.046 83.9245C106.281 83.4824 104.434 83.465 102.661 83.8737L83.8257 79.6731L82.0217 88.4601L100.781 91.6683C102.178 92.8258 103.834 93.6355 105.611 94.0298L105.611 94.0298H105.611H105.611Z" fill="#FFB6B6"/>
<path d="M85.2506 45.5655L82.1408 43.0015C82.1408 43.0015 75.9212 46.0783 74.8846 48.6423C73.848 51.2063 67.6283 75.8209 67.6283 75.8209C67.6283 75.8209 66.4081 89.3109 69.6097 91.0271C72.8114 92.7434 93.0252 91.7178 93.0252 91.7178L94.5801 81.4618L86.2873 78.3849L85.2506 45.5655Z" fill="#0093D5"/>
<path d="M110.097 31.8029C117.664 31.8029 123.798 25.7341 123.798 18.2478C123.798 10.7616 117.664 4.69275 110.097 4.69275C102.531 4.69275 96.397 10.7616 96.397 18.2478C96.397 25.7341 102.531 31.8029 110.097 31.8029Z" fill="#FFB6B6"/>
<path d="M100.271 30.2809C98.6301 30.426 95.9508 26.2719 96.0702 22.2488C96.147 19.6606 93.8759 19.1517 93.7072 15.814C93.6089 13.8691 96.6283 13.2627 96.8357 11.7028C97.2116 8.87642 99.0546 6.97454 99.2847 6.74333C101.271 4.74754 102.673 5.39634 105.008 3.08327C106.415 1.69068 106.054 1.30916 107.001 0.691472C109.735 -1.09121 114.646 0.840878 117.583 3.44347C118.599 4.34408 122.388 3.35977 124.043 5.90298C125.992 8.89934 125.54 15.0101 124.704 15.8165C124.196 16.3065 123.036 15.1094 119.892 14.3412C116.981 13.6299 119.727 17.1474 116.362 16.5571C112.382 15.8591 111.603 14.6613 110.113 15.3797C108.538 16.1391 107.307 18.4907 107.664 20.3392C107.841 21.2565 108.355 21.768 108.066 22.2345C107.536 23.0861 106.929 22.2509 106.25 23.1055C105.461 24.0996 107.423 26.6497 107.053 26.896C106.979 26.9456 106.754 26.9392 104.636 24.9242C103.79 24.1196 103.542 23.6255 103.377 23.7013C103.109 23.8241 101.354 25.442 102.024 26.7197C103.067 28.708 101.732 28.7699 102.024 30.1085C102.325 31.4894 101.314 30.1887 100.271 30.2809H100.271L100.271 30.2809Z" fill="#2F2E41"/>
</g>
<defs>
<clipPath id="clip0_279_1982">
<rect width="247" height="236" fill="white"/>
</clipPath>
</defs>
</svg>
