<svg width="160" height="41" viewBox="0 0 160 41" fill="none" xmlns="http://www.w3.org/2000/svg">
<path d="M22.6417 18.4473C21.7887 18.2542 21.2674 17.8198 21.1726 16.8062C20.7461 16.7096 19.6087 16.7096 19.4665 16.8062C19.1877 16.9955 17.1918 18.7369 16.9548 19.0265C16.7179 19.3161 17.7084 21.1502 17.95 21.1502C18.0448 21.1502 18.9926 20.378 18.9452 20.6193C18.8978 20.8606 18.2344 22.6465 18.187 22.9361C18.1396 23.2257 19.7509 24.3359 20.6987 24.7703C21.6465 25.2047 24.2056 25.3495 24.2056 25.2047C24.2056 25.0599 24.66 21.9126 24.869 22.0191C24.9638 22.2121 25.2482 22.9844 25.3429 22.9844C26.0064 22.9844 27.2385 21.826 27.2385 21.5846C27.2385 21.3688 26.2907 19.0747 26.196 18.8817C26.0223 18.5279 24.6795 17.6364 24.5847 17.675C24.4899 17.7136 23.8738 18.7261 22.6417 18.4473Z" fill="#0093D5"/>
<path d="M19.6891 22.9905C16.0772 22.2226 12.4765 22.3362 10.6367 24.7019C10.6367 26.967 10.9523 32.345 16.4334 34.5677C22.1434 36.8832 31.5335 31.8573 29.9307 24.8103C26.8754 27.176 22.2936 23.5442 19.6891 22.9905Z" fill="#44D8BB"/>
<path d="M18.5218 23.1657C15.2137 21.5727 11.5994 23.1657 10.6501 24.709C10.6501 26.9492 10.1524 30.8643 15.2336 33.8191C21.3118 37.3537 29.9307 33.172 29.9307 28.0444C24.4006 28.5422 22.6569 25.157 18.5218 23.1657Z" fill="#0093D5"/>
<path d="M14.725 17.9313L15.236 18.6392L16.106 18.712L15.3981 19.223L15.3252 20.093L14.8143 19.3851L13.9443 19.3123L14.6521 18.8013L14.725 17.9313Z" fill="#0093D5"/>
<path d="M16.2441 23.393L16.1885 24.0892L16.6808 24.5846L15.9846 24.529L15.4892 25.0213L15.5448 24.3251L15.0525 23.8296L15.7487 23.8853L16.2441 23.393Z" fill="white"/>
<path d="M13.5399 20.2618L13.8156 20.7072L14.3332 20.7878L13.8878 21.0636L13.8072 21.5811L13.5315 21.1358L13.0139 21.0551L13.4593 20.7794L13.5399 20.2618Z" fill="#0093D5"/>
<path d="M15.5724 21.0256L15.6936 21.3531L16.0211 21.4743L15.6936 21.5955L15.5724 21.923L15.4512 21.5955L15.1237 21.4743L15.4512 21.3531L15.5724 21.0256Z" fill="#0093D5"/>
<path d="M14.1502 25.4722L14.1012 25.8179L14.3318 26.0802L13.986 26.0312L13.7237 26.2617L13.7728 25.916L13.5422 25.6537L13.8879 25.7027L14.1502 25.4722Z" fill="white"/>
<circle cx="15.5724" cy="27.9511" r="0.897394" fill="white"/>
<circle cx="16.9185" cy="29.7459" r="0.448697" fill="white"/>
<circle cx="18.7133" cy="30.6433" r="0.448697" fill="white"/>
<circle cx="23.2003" cy="30.6433" r="0.448697" fill="white"/>
<circle cx="22.5272" cy="31.7651" r="0.224348" fill="white"/>
<path fill-rule="evenodd" clip-rule="evenodd" d="M29.9307 24.8103C29.9307 30.0143 25.712 34.2329 20.5081 34.2329C15.3041 34.2329 11.0854 30.0142 11.0854 24.8103C11.0854 19.6063 15.3041 15.3876 20.5081 15.3876C24.6108 15.3876 28.1011 18.0097 29.3946 21.6694H32.2118C30.8283 16.5012 26.1126 12.6954 20.5081 12.6954C13.8172 12.6954 8.39325 18.1194 8.39325 24.8103C8.39325 31.5011 13.8172 36.9251 20.5081 36.9251C27.1989 36.9251 32.6228 31.5011 32.6229 24.8103H29.9307Z" fill="#44D8BB"/>
<path fill-rule="evenodd" clip-rule="evenodd" d="M37.1099 12.6954V39.1685H30.1551V33.5428C32.2464 31.2339 33.5203 28.1709 33.5203 24.8103C33.5203 21.4497 32.2464 18.3867 30.1551 16.0778V9.10583L37.1099 12.6954Z" fill="#0093D5"/>
<path fill-rule="evenodd" clip-rule="evenodd" d="M28.3603 35.1872V39.1686H21.4055V37.792C24.0084 37.6148 26.4011 36.672 28.3603 35.1872ZM28.3603 14.4334V5.0676L21.4055 1.47803V11.8286C24.0084 12.0058 26.4011 12.9486 28.3603 14.4334Z" fill="#0093D5"/>
<path fill-rule="evenodd" clip-rule="evenodd" d="M12.6559 35.1871V39.1686H19.6107V37.792C17.0078 37.6147 14.6151 36.672 12.6559 35.1871ZM12.6559 14.4334C14.6151 12.9486 17.0078 12.0058 19.6107 11.8285V1.47803L12.6559 5.0676V14.4334Z" fill="#0093D5"/>
<path fill-rule="evenodd" clip-rule="evenodd" d="M3.90631 12.6954V39.1685H10.8611V33.5427C8.76982 31.2338 7.49587 28.1708 7.49587 24.8102C7.49587 21.4497 8.76982 18.3867 10.8611 16.0778V9.10583L3.90631 12.6954Z" fill="#0093D5"/>
<path d="M46.9631 24.3769H44.6247C43.851 24.3769 43.2621 24.3076 42.858 24.169C42.4577 24.0266 42.1093 23.7861 41.8129 23.4473C41.6628 23.2818 41.5397 23.1202 41.4434 22.9623C41.3472 22.8122 41.2644 22.6332 41.1952 22.4254C41.0758 22.0482 41.0162 21.5247 41.0162 20.855V15.7568H43.0543V20.7972C43.0543 21.0012 43.0581 21.1898 43.0658 21.363C43.0658 21.5439 43.0774 21.6864 43.1005 21.7903C43.1544 21.9712 43.2179 22.104 43.291 22.1887C43.3603 22.2849 43.4334 22.36 43.5104 22.4138C43.5912 22.4793 43.699 22.5351 43.8337 22.5813C44.0839 22.6621 44.3995 22.7025 44.7806 22.7025H46.9631V24.3769Z" fill="#44D8BB"/>
<path d="M57.1118 24.3827H54.8427L54.0864 22.4023H50.7146L49.9813 24.3827H47.8046L51.4132 15.7568H53.4686L57.1118 24.3827ZM53.3993 20.6182L52.3716 17.9912L51.3901 20.6182H53.3993Z" fill="#44D8BB"/>
<path d="M66.1577 20.9358C66.1577 21.2283 66.1462 21.4881 66.1231 21.7152C66.1 21.9385 66.0692 22.156 66.0307 22.3677C65.9499 22.7641 65.8152 23.0643 65.6266 23.2684C65.2878 23.6764 64.8587 23.9785 64.339 24.1748C63.8194 24.3673 63.1805 24.4635 62.4222 24.4635C61.6639 24.4635 61.0288 24.3692 60.5169 24.1806C59.9972 23.9881 59.5565 23.6841 59.1947 23.2684C59.0215 23.0297 58.9002 22.7372 58.831 22.3908C58.7501 22.0443 58.7097 21.5593 58.7097 20.9358V15.7568H60.7189V20.8896C60.7189 21.6171 60.8421 22.1252 61.0885 22.4138C61.3464 22.6948 61.7909 22.8353 62.4222 22.8353C63.0534 22.8353 63.4999 22.6948 63.7617 22.4138C64.0119 22.1252 64.137 21.6171 64.137 20.8896V15.7568H66.1577V20.9358Z" fill="#44D8BB"/>
<path d="M76.5086 24.3827H74.2626L70.9485 18.5051L71.0178 24.3827H68.9624V15.7568H71.3873L74.5109 21.3169L74.4416 15.7568H76.5086V24.3827Z" fill="#44D8BB"/>
<path d="M87.2404 20.2141C87.2404 20.6028 87.2173 20.9589 87.1711 21.2822C87.1173 21.6055 87.0307 21.9212 86.9113 22.2291C86.6842 22.8103 86.3532 23.2703 85.9183 23.609C85.5795 23.8707 85.2139 24.067 84.8213 24.1979C84.4094 24.3172 83.8878 24.3769 83.2566 24.3769H79.2959V15.7568H83.2104C84.573 15.7568 85.5853 16.1205 86.2474 16.848C86.9094 17.5717 87.2404 18.6937 87.2404 20.2141ZM85.0522 20.064C85.0522 19.094 84.9233 18.4242 84.6654 18.0547C84.3959 17.6891 83.8994 17.5062 83.1758 17.5062H81.3166V22.6275H83.1758C83.8917 22.6275 84.3825 22.4466 84.648 22.0847C84.9175 21.7229 85.0522 21.0493 85.0522 20.064Z" fill="#44D8BB"/>
<path d="M97.4931 24.3827H95.2009L93.3938 21.1205H91.5808V24.3827H89.5601V15.7568H93.9711C95.0181 15.7568 95.7745 15.9743 96.2402 16.4092C96.7367 16.8365 96.985 17.5024 96.985 18.4069C96.985 19.0767 96.8349 19.6252 96.5347 20.0524C96.2691 20.4373 95.8918 20.701 95.403 20.8434L97.4931 24.3827ZM94.9527 18.43C94.9527 18.1067 94.8622 17.8777 94.6813 17.7429C94.4773 17.6121 94.102 17.5466 93.5554 17.5466H91.5808V19.3423H93.5554C94.0866 19.3423 94.4581 19.271 94.6698 19.1286C94.8584 18.9862 94.9527 18.7533 94.9527 18.43Z" fill="#44D8BB"/>
<path d="M106.735 15.7568L103.439 20.5836V24.3827H101.418V20.5951L98.1383 15.7568H100.459L102.411 18.8111L104.374 15.7568H106.735Z" fill="#44D8BB"/>
<path d="M121.64 21.7441C121.64 22.6409 121.392 23.3049 120.895 23.736C120.399 24.1633 119.639 24.3769 118.615 24.3769H113.863V22.6044H118.343C118.563 22.6044 118.755 22.5871 118.921 22.5524C119.079 22.5255 119.202 22.4754 119.29 22.4023C119.46 22.2791 119.544 22.079 119.544 21.8018C119.544 21.517 119.465 21.3034 119.308 21.161C119.223 21.0994 119.117 21.057 118.99 21.0339C118.855 21.0108 118.678 20.9993 118.459 20.9993H116.409C115.451 20.9993 114.723 20.7934 114.227 20.3815C113.761 19.9658 113.528 19.323 113.528 18.4531C113.528 17.5332 113.776 16.8519 114.273 16.4092C114.762 15.9743 115.524 15.7568 116.559 15.7568H121.253V17.5409L116.819 17.5466C116.377 17.5466 116.069 17.6217 115.895 17.7718C115.722 17.9027 115.636 18.1375 115.636 18.4762C115.636 18.7148 115.707 18.9015 115.849 19.0363C116.022 19.1671 116.263 19.2326 116.571 19.2326H118.863C119.864 19.2326 120.576 19.4289 120.999 19.8215C121.427 20.2102 121.64 20.8511 121.64 21.7441Z" fill="#44D8BB"/>
<path d="M130.634 17.5235H127.949V24.3827H125.871L125.865 17.5235H123.203V15.7684H130.634V17.5235Z" fill="#44D8BB"/>
<path d="M140.587 20.064C140.587 21.569 140.234 22.6929 139.53 23.4358C138.829 24.1825 137.761 24.5559 136.326 24.5559C134.859 24.5559 133.783 24.1844 133.098 23.4416C132.413 22.6948 132.07 21.542 132.07 19.9831C132.07 18.5089 132.421 17.4081 133.121 16.6806C133.814 15.9647 134.882 15.6067 136.326 15.6067C137.769 15.6067 138.841 15.9724 139.542 16.7037C140.238 17.4466 140.587 18.5667 140.587 20.064ZM138.41 20.064C138.41 19.1171 138.241 18.4185 137.902 17.9681C137.563 17.5293 137.038 17.3099 136.326 17.3099C135.633 17.3099 135.113 17.5255 134.767 17.9566C134.594 18.1875 134.463 18.4685 134.374 18.7995C134.289 19.1306 134.247 19.5289 134.247 19.9947C134.247 20.9801 134.416 21.696 134.755 22.1425C135.086 22.5928 135.61 22.818 136.326 22.818C137.018 22.818 137.54 22.5928 137.89 22.1425C138.237 21.7037 138.41 21.0108 138.41 20.064Z" fill="#44D8BB"/>
<path d="M150.822 24.3827H148.53L146.723 21.1205H144.91V24.3827H142.889V15.7568H147.3C148.347 15.7568 149.103 15.9743 149.569 16.4092C150.066 16.8365 150.314 17.5024 150.314 18.4069C150.314 19.0767 150.164 19.6252 149.864 20.0524C149.598 20.4373 149.221 20.701 148.732 20.8434L150.822 24.3827ZM148.282 18.43C148.282 18.1067 148.191 17.8777 148.01 17.7429C147.806 17.6121 147.431 17.5466 146.884 17.5466H144.91V19.3423H146.884C147.415 19.3423 147.787 19.271 147.999 19.1286C148.187 18.9862 148.282 18.7533 148.282 18.43Z" fill="#44D8BB"/>
<path d="M159.464 24.3769H156.375C155.72 24.3769 155.205 24.3211 154.827 24.2095C154.443 24.1017 154.071 23.9015 153.713 23.609C153.274 23.2395 152.947 22.7757 152.732 22.2175C152.512 21.6556 152.403 20.9878 152.403 20.2141C152.403 18.7014 152.73 17.5794 153.384 16.848C154.031 16.1205 155.043 15.7568 156.421 15.7568H159.464V17.5062H156.456C155.882 17.5062 155.453 17.6448 155.168 17.9219C154.876 18.2029 154.706 18.609 154.66 19.1402L159.464 19.1517V20.8896H154.649C154.649 21.1783 154.685 21.4342 154.758 21.6575C154.82 21.8769 154.918 22.054 155.053 22.1887C155.334 22.4812 155.801 22.6275 156.456 22.6275H159.464V24.3769Z" fill="#44D8BB"/>
<path d="M43.3497 34.4463C43.043 34.4463 42.7603 34.3982 42.5016 34.3021C42.2466 34.2024 42.0231 34.062 41.8309 33.8809C41.6425 33.6998 41.4947 33.4874 41.3875 33.2435C41.2841 32.9996 41.2323 32.7317 41.2323 32.4398C41.2323 32.1479 41.2841 31.88 41.3875 31.6361C41.4947 31.3922 41.6443 31.1797 41.8365 30.9987C42.0286 30.8176 42.254 30.679 42.5127 30.583C42.7714 30.4832 43.0559 30.4333 43.3663 30.4333C43.7099 30.4333 44.0185 30.4906 44.2919 30.6051C44.5691 30.7197 44.8018 30.886 44.9903 31.104L44.4139 31.6361C44.2734 31.4883 44.1201 31.3793 43.9538 31.3091C43.7875 31.2352 43.6065 31.1982 43.4106 31.1982C43.2222 31.1982 43.0503 31.2278 42.8951 31.2869C42.74 31.346 42.6051 31.431 42.4905 31.5419C42.3797 31.6527 42.2928 31.7839 42.23 31.9354C42.1709 32.0869 42.1413 32.255 42.1413 32.4398C42.1413 32.6208 42.1709 32.7871 42.23 32.9386C42.2928 33.0901 42.3797 33.2232 42.4905 33.3377C42.6051 33.4486 42.7381 33.5335 42.8896 33.5927C43.0448 33.6518 43.2148 33.6814 43.3995 33.6814C43.5769 33.6814 43.7487 33.6536 43.915 33.5982C44.085 33.5391 44.2494 33.4412 44.4083 33.3044L44.9182 33.9529C44.7076 34.1118 44.4619 34.2338 44.1811 34.3188C43.9039 34.4038 43.6268 34.4463 43.3497 34.4463ZM44.0979 33.8366V32.3788H44.9182V33.9529L44.0979 33.8366Z" fill="#444444"/>
<path d="M47.9971 34.3797V30.4998H48.8951V34.3797H47.9971Z" fill="#444444"/>
<path d="M51.5507 34.3797L53.2801 30.4998H54.1669L55.9018 34.3797H54.9595L53.5406 30.9543H53.8953L52.4708 34.3797H51.5507ZM52.4154 33.5483L52.6537 32.8666H54.6491L54.893 33.5483H52.4154ZM53.7235 35.5437C53.6163 35.5437 53.5258 35.5105 53.4519 35.4439C53.378 35.3774 53.341 35.2869 53.341 35.1723C53.341 35.0578 53.378 34.9636 53.4519 34.8897C53.5258 34.8195 53.6163 34.7844 53.7235 34.7844C53.8306 34.7844 53.9212 34.8195 53.9951 34.8897C54.069 34.9636 54.1059 35.0578 54.1059 35.1723C54.1059 35.2869 54.069 35.3774 53.9951 35.4439C53.9212 35.5105 53.8306 35.5437 53.7235 35.5437ZM53.7235 30.2282C53.4352 30.2282 53.1951 30.1525 53.0029 30.001C52.8145 29.8495 52.7147 29.6444 52.7036 29.3857H53.2468C53.2542 29.5077 53.3022 29.6038 53.3909 29.674C53.4833 29.7442 53.5941 29.7793 53.7235 29.7793C53.8528 29.7793 53.9637 29.7442 54.056 29.674C54.1484 29.6038 54.1964 29.5077 54.2001 29.3857H54.7433C54.7322 29.6444 54.6306 29.8495 54.4385 30.001C54.25 30.1525 54.0117 30.2282 53.7235 30.2282Z" fill="#444444"/>
<path d="M59.1579 34.3797V31.2315H57.9164V30.4998H61.2974V31.2315H60.0559V34.3797H59.1579Z" fill="#444444"/>
<path d="M67.8399 34.3797V30.4998H68.7378V33.6481H70.6833V34.3797H67.8399Z" fill="#444444"/>
<path d="M72.9415 34.3797L74.6709 30.4998H75.5577L77.2926 34.3797H76.3503L74.9314 30.9543H75.2861L73.8616 34.3797H72.9415ZM73.8062 33.5483L74.0445 32.8666H76.0399L76.2838 33.5483H73.8062ZM74.9424 30.1839L73.9392 29.3857H74.8704L75.6187 30.1839H74.9424Z" fill="#444444"/>
<path d="M85.6112 34.4463C85.3119 34.4463 85.033 34.3982 84.7743 34.3021C84.5193 34.2024 84.2976 34.062 84.1092 33.8809C83.9207 33.6998 83.7729 33.4874 83.6657 33.2435C83.5623 32.9996 83.5106 32.7317 83.5106 32.4398C83.5106 32.1479 83.5623 31.88 83.6657 31.6361C83.7729 31.3922 83.9207 31.1797 84.1092 30.9987C84.3013 30.8176 84.5249 30.679 84.7798 30.583C85.0348 30.4832 85.3138 30.4333 85.6168 30.4333C85.953 30.4333 86.2561 30.4924 86.5258 30.6107C86.7992 30.7252 87.0283 30.8952 87.2131 31.1206L86.6366 31.6527C86.5036 31.5012 86.3558 31.3885 86.1932 31.3146C86.0306 31.237 85.8533 31.1982 85.6611 31.1982C85.4801 31.1982 85.3138 31.2278 85.1623 31.2869C85.0108 31.346 84.8796 31.431 84.7687 31.5419C84.6579 31.6527 84.5711 31.7839 84.5082 31.9354C84.4491 32.0869 84.4196 32.255 84.4196 32.4398C84.4196 32.6245 84.4491 32.7927 84.5082 32.9442C84.5711 33.0957 84.6579 33.2269 84.7687 33.3377C84.8796 33.4486 85.0108 33.5335 85.1623 33.5927C85.3138 33.6518 85.4801 33.6814 85.6611 33.6814C85.8533 33.6814 86.0306 33.6444 86.1932 33.5705C86.3558 33.4929 86.5036 33.3765 86.6366 33.2213L87.2131 33.7534C87.0283 33.9788 86.7992 34.1506 86.5258 34.2689C86.2561 34.3871 85.9512 34.4463 85.6112 34.4463Z" fill="#444444"/>
<path d="M92.7248 30.4998H93.6227V34.3797H92.7248V30.4998ZM90.9622 34.3797H90.0643V30.4998H90.9622V34.3797ZM92.7913 32.789H90.8957V32.0296H92.7913V32.789Z" fill="#444444"/>
<path d="M98.5093 34.4463C97.9587 34.4463 97.5282 34.2929 97.2178 33.9862C96.9074 33.6795 96.7522 33.2416 96.7522 32.6726V30.4998H97.6501V32.6393C97.6501 33.0088 97.7259 33.2749 97.8774 33.4375C98.0289 33.6001 98.2414 33.6814 98.5148 33.6814C98.7882 33.6814 99.0007 33.6001 99.1522 33.4375C99.3037 33.2749 99.3795 33.0088 99.3795 32.6393V30.4998H100.266V32.6726C100.266 33.2416 100.111 33.6795 99.8007 33.9862C99.4903 34.2929 99.0598 34.4463 98.5093 34.4463Z" fill="#444444"/>
<path d="M104.309 34.3797V32.7945L104.514 33.3377L102.807 30.4998H103.76L105.068 32.6781H104.519L105.833 30.4998H106.714L105.007 33.3377L105.207 32.7945V34.3797H104.309Z" fill="#444444"/>
<path d="M110.128 32.0629H111.996V32.7613H110.128V32.0629ZM110.195 33.6592H112.306V34.3797H109.302V30.4998H112.234V31.2204H110.195V33.6592ZM109.657 30.1839L110.389 29.3857H111.154L111.885 30.1839H111.253L110.488 29.5188H111.054L110.289 30.1839H109.657Z" fill="#444444"/>
<path d="M115.266 34.3797V30.4998H116.008L118.298 33.2934H117.937V30.4998H118.824V34.3797H118.087L115.792 31.5862H116.153V34.3797H115.266Z" fill="#444444"/>
<path d="M125.801 34.3797V30.4998H126.544L128.833 33.2934H128.473V30.4998H129.36V34.3797H128.623L126.328 31.5862H126.688V34.3797H125.801Z" fill="#444444"/>
<path d="M134.396 34.4463C134.089 34.4463 133.807 34.3982 133.548 34.3021C133.293 34.2024 133.07 34.062 132.877 33.8809C132.689 33.6998 132.541 33.4874 132.434 33.2435C132.33 32.9996 132.279 32.7317 132.279 32.4398C132.279 32.1479 132.33 31.88 132.434 31.6361C132.541 31.3922 132.691 31.1797 132.883 30.9987C133.075 30.8176 133.3 30.679 133.559 30.583C133.818 30.4832 134.102 30.4333 134.413 30.4333C134.756 30.4333 135.065 30.4906 135.338 30.6051C135.615 30.7197 135.848 30.886 136.037 31.104L135.46 31.6361C135.32 31.4883 135.166 31.3793 135 31.3091C134.834 31.2352 134.653 31.1982 134.457 31.1982C134.269 31.1982 134.097 31.2278 133.942 31.2869C133.786 31.346 133.651 31.431 133.537 31.5419C133.426 31.6527 133.339 31.7839 133.276 31.9354C133.217 32.0869 133.188 32.255 133.188 32.4398C133.188 32.6208 133.217 32.7871 133.276 32.9386C133.339 33.0901 133.426 33.2232 133.537 33.3377C133.651 33.4486 133.785 33.5335 133.936 33.5927C134.091 33.6518 134.261 33.6814 134.446 33.6814C134.623 33.6814 134.795 33.6536 134.961 33.5982C135.131 33.5391 135.296 33.4412 135.455 33.3044L135.965 33.9529C135.754 34.1118 135.508 34.2338 135.227 34.3188C134.95 34.4038 134.673 34.4463 134.396 34.4463ZM135.144 33.8366V32.3788H135.965V33.9529L135.144 33.8366Z" fill="#444444"/>
<path d="M141.704 30.4998H142.602V34.3797H141.704V30.4998ZM139.941 34.3797H139.044V30.4998H139.941V34.3797ZM141.771 32.789H139.875V32.0296H141.771V32.789Z" fill="#444444"/>
<path d="M145.765 34.3797V30.4998H146.663V34.3797H145.765Z" fill="#444444"/>
<path d="M150.654 32.0629H152.522V32.7613H150.654V32.0629ZM150.721 33.6592H152.832V34.3797H149.828V30.4998H152.76V31.2204H150.721V33.6592ZM151.325 35.5437C151.218 35.5437 151.127 35.5105 151.053 35.4439C150.979 35.3774 150.942 35.2869 150.942 35.1723C150.942 35.0578 150.979 34.9636 151.053 34.8897C151.127 34.8195 151.218 34.7844 151.325 34.7844C151.432 34.7844 151.522 34.8195 151.596 34.8897C151.67 34.9636 151.707 35.0578 151.707 35.1723C151.707 35.2869 151.67 35.3774 151.596 35.4439C151.522 35.5105 151.432 35.5437 151.325 35.5437ZM150.183 30.1839L150.915 29.3857H151.68L152.411 30.1839H151.779L151.014 29.5188H151.58L150.815 30.1839H150.183Z" fill="#444444"/>
<path d="M155.792 34.3797V30.4998H157.471C157.818 30.4998 158.118 30.5571 158.369 30.6717C158.62 30.7825 158.814 30.9432 158.951 31.1539C159.088 31.3645 159.156 31.6158 159.156 31.9077C159.156 32.1959 159.088 32.4453 158.951 32.656C158.814 32.8666 158.62 33.0292 158.369 33.1437C158.118 33.2546 157.818 33.31 157.471 33.31H156.291L156.69 32.9054V34.3797H155.792ZM156.69 33.0051L156.291 32.5784H157.421C157.698 32.5784 157.905 32.5192 158.042 32.401C158.179 32.2827 158.247 32.1183 158.247 31.9077C158.247 31.6934 158.179 31.5271 158.042 31.4088C157.905 31.2906 157.698 31.2315 157.421 31.2315H156.291L156.69 30.8047V33.0051Z" fill="#444444"/>
</svg>
