<svg width="48" height="48" viewBox="0 0 48 48" fill="none" xmlns="http://www.w3.org/2000/svg">
<path d="M10.6154 15.7714C10.6154 11.4794 14.1282 8 18.4615 8C22.7948 8 26.3077 11.4794 26.3077 15.7714C26.3077 20.0635 22.7948 23.5429 18.4615 23.5429C14.1282 23.5429 10.6154 20.0635 10.6154 15.7714Z" fill="#0093D5"/>
<path d="M13.5025 27.0523L13.8313 27.0003C16.8987 26.5154 20.0244 26.5154 23.0918 27.0003L23.4206 27.0523C27.7428 27.7355 30.9231 31.4281 30.9231 35.7633C30.9231 38.1031 29.008 40 26.6456 40H10.2775C7.91509 40 6 38.1031 6 35.7633C6 31.4281 9.18032 27.7355 13.5025 27.0523Z" fill="#0093D5"/>
<path d="M29.5385 8C28.7738 8 28.1538 8.61401 28.1538 9.37143C28.1538 10.1288 28.7738 10.7429 29.5385 10.7429C32.3424 10.7429 34.6154 12.9942 34.6154 15.7714C34.6154 18.5486 32.3424 20.8 29.5385 20.8C28.7738 20.8 28.1538 21.414 28.1538 22.1714C28.1538 22.9288 28.7738 23.5429 29.5385 23.5429C33.8718 23.5429 37.3846 20.0635 37.3846 15.7714C37.3846 11.4794 33.8718 8 29.5385 8Z" fill="#0093D5"/>
<path d="M31.8298 26.9831C31.0651 26.9831 30.4452 27.5972 30.4452 28.3546C30.4452 29.112 31.0651 29.726 31.8298 29.726H33.6172C33.7658 29.726 33.9145 29.7377 34.0611 29.7608C37.0393 30.2316 39.2308 32.7761 39.2308 35.7633C39.2308 36.5883 38.5555 37.2571 37.7225 37.2571H33.9505C33.1858 37.2571 32.5659 37.8712 32.5659 38.6286C32.5659 39.386 33.1858 40 33.9505 40H37.7225C40.0849 40 42 38.1031 42 35.7633C42 31.4281 38.8197 27.7355 34.4975 27.0523C34.2064 27.0062 33.9117 26.9831 33.6172 26.9831H31.8298Z" fill="#0093D5"/>
</svg>
