<svg width="247" height="280" viewBox="0 0 247 280" fill="none" xmlns="http://www.w3.org/2000/svg">
<g clip-path="url(#clip0_279_1940)">
<path d="M119.971 186.189C119.569 186.672 119.029 187.02 118.423 187.186C117.816 187.352 117.174 187.327 116.582 187.116C115.99 186.905 115.478 186.517 115.114 186.005C114.75 185.493 114.552 184.882 114.548 184.254C114.373 183.99 114.247 183.801 114.072 183.537C112.54 182.953 110.867 182.84 109.27 183.212C107.672 183.584 106.222 184.424 105.105 185.624C103.989 186.825 103.257 188.331 103.003 189.95C102.749 191.568 102.984 193.226 103.68 194.71C107.517 203.114 110.855 212.509 119.352 217.085C84.7545 206.458 58.2014 175.18 52.8916 139.493C54.5737 132.497 53.4556 124.567 49.0537 118.759C47.7319 121.776 43.2319 122.941 42.3829 118.994C42.1395 117.397 41.9101 115.799 41.6666 114.202C24.3397 114.457 29.4904 138.25 50.8868 140.086C51.9667 146.842 53.7507 153.467 56.2098 159.852C51.8813 154.953 46.4501 151.151 40.3632 148.757C34.5624 146.667 28.035 146.706 21.7696 146.269C14.1423 145.729 9.61704 154.791 14.8149 160.386C18.8237 158.125 23.8753 161.957 21.1438 166.232C32.4954 174.797 48.3512 176.726 61.53 171.498C68.1193 183.86 77.2709 194.678 88.3748 203.23C74.7901 193.901 60.0509 204.174 46.9992 208.851C46.1042 209.09 45.2982 209.584 44.6796 210.273C44.0609 210.962 43.6564 211.816 43.5152 212.73C43.3741 213.645 43.5024 214.581 43.8847 215.423C44.2669 216.266 44.8865 216.98 45.6679 217.477C47.3154 216.692 49.037 216.071 50.8072 215.626C51.6422 215.422 52.5199 215.481 53.32 215.795C54.12 216.109 54.8032 216.662 55.276 217.38C55.7488 218.097 55.988 218.942 55.9608 219.8C55.9336 220.658 55.6413 221.487 55.1241 222.173C70.5816 227.9 88.9252 223.021 99.9314 210.876C106.054 214.321 112.519 217.121 119.222 219.232L135.621 201.264C135.48 201.018 135.327 200.772 135.18 200.532C133.766 202.29 132.143 203.869 130.345 205.234C129.146 196.084 129.59 190.258 119.972 186.189L119.971 186.189Z" fill="#F2F2F2"/>
<path d="M158.797 207.303C159.352 207.599 159.984 207.718 160.608 207.643C161.232 207.568 161.818 207.303 162.286 206.885C162.755 206.466 163.083 205.914 163.226 205.302C163.37 204.691 163.322 204.051 163.089 203.468C163.151 203.157 163.196 202.935 163.259 202.624C164.458 201.506 165.964 200.772 167.584 200.514C169.204 200.257 170.864 200.488 172.352 201.179C173.839 201.87 175.086 202.989 175.933 204.393C176.779 205.796 177.187 207.42 177.103 209.057C176.724 218.286 177.18 228.244 171.039 235.684C199.067 212.807 211.847 173.835 203.287 138.783C199.088 132.938 197.128 125.172 199.012 118.135C201.375 120.431 205.983 119.814 205.279 115.839C204.901 114.269 204.51 112.702 204.132 111.131C220.276 104.839 224.49 128.815 205.368 138.577C206.919 145.241 207.769 152.048 207.903 158.889C210.062 152.721 213.655 147.153 218.389 142.643C222.972 138.521 229.032 136.098 234.669 133.333C241.529 129.959 249.143 136.647 246.442 143.787C241.875 143.204 238.644 148.656 242.788 151.586C235.509 163.795 221.553 171.556 207.374 171.679C205.94 185.611 201.549 199.077 194.495 211.181C203.553 197.423 221.083 201.384 234.937 200.798C235.856 200.682 236.789 200.836 237.622 201.241C238.455 201.646 239.152 202.284 239.629 203.078C240.105 203.872 240.339 204.787 240.303 205.711C240.268 206.636 239.963 207.53 239.428 208.285C237.605 208.178 235.777 208.253 233.969 208.507C233.118 208.633 232.328 209.018 231.706 209.61C231.083 210.203 230.659 210.973 230.492 211.815C230.325 212.657 230.423 213.53 230.772 214.315C231.122 215.099 231.705 215.757 232.443 216.197C220.29 227.325 201.459 229.717 186.679 222.616C182.31 228.114 177.38 233.143 171.969 237.623L149.996 227.161C150.034 226.88 150.083 226.594 150.129 226.317C152.102 227.413 154.202 228.263 156.381 228.85C154.037 219.924 151.425 214.696 158.797 207.303H158.797Z" fill="#F2F2F2"/>
<path d="M178.573 280H147.187L141.924 254.008L140.217 280H111.063C111.074 259.588 112.138 239.19 114.252 218.887L114.613 217.658L115.184 215.691L115.545 214.457L121.578 193.763L122.055 192.121H158.384C160.475 194.082 162.403 196.209 164.15 198.481C164.742 199.235 165.36 200.051 165.993 200.929C166.433 201.552 166.889 202.206 167.345 202.891C171.392 208.91 174.418 215.556 176.3 222.559V222.565C176.619 223.762 176.902 224.988 177.148 226.242V226.247C177.368 227.361 177.562 228.491 177.714 229.647C177.829 230.489 177.929 231.342 178.002 232.205C178.438 236.987 178.285 241.804 177.546 246.548L178.573 280Z" fill="#2F2E41"/>
<path d="M32.3619 151.071C33.3474 149.914 32.7972 147.83 31.1328 146.415C29.4685 145 27.3204 144.79 26.3349 145.946C25.3494 147.103 25.8996 149.187 27.564 150.602C29.2283 152.017 31.3764 152.227 32.3619 151.071Z" fill="#E6E6E6"/>
<path d="M40.2602 144.958C41.2907 144.039 41.6074 142.714 40.9676 141.998C40.3277 141.282 38.9736 141.446 37.9431 142.365C36.9125 143.283 36.5958 144.609 37.2357 145.325C37.8755 146.041 39.2297 145.876 40.2602 144.958Z" fill="#FF6584"/>
<path d="M62.7668 142.844C63.7973 141.925 64.114 140.6 63.4742 139.884C62.8343 139.168 61.4802 139.332 60.4497 140.251C59.4191 141.17 59.1024 142.495 59.7423 143.211C60.3821 143.927 61.7363 143.763 62.7668 142.844Z" fill="#E6E6E6"/>
<path d="M52.6743 142.613C53.6598 141.456 53.1095 139.371 51.4452 137.956C49.7809 136.541 47.6328 136.332 46.6473 137.488C45.6617 138.645 46.212 140.729 47.8763 142.144C49.5407 143.559 51.6888 143.769 52.6743 142.613Z" fill="#FF6584"/>
<path d="M20.1987 139.535C21.2292 138.617 21.5459 137.291 20.906 136.575C20.2662 135.859 18.9121 136.024 17.8815 136.942C16.851 137.861 16.5343 139.186 17.1742 139.902C17.814 140.618 19.1681 140.454 20.1987 139.535Z" fill="#3F3D56"/>
<path d="M17.2468 130.095C18.2324 128.939 17.6821 126.854 16.0178 125.439C14.3534 124.024 12.2053 123.814 11.2198 124.971C10.2343 126.127 10.7846 128.212 12.4489 129.627C14.1132 131.042 16.2613 131.252 17.2468 130.095Z" fill="#3F3D56"/>
<path d="M124.192 110.266C124.817 110.203 125.408 109.95 125.884 109.54C126.36 109.13 126.699 108.584 126.854 107.976C127.009 107.368 126.973 106.726 126.751 106.139C126.529 105.551 126.132 105.046 125.613 104.692C125.492 104.4 125.405 104.19 125.283 103.898C125.655 102.302 126.495 100.853 127.696 99.737C128.897 98.621 130.405 97.8888 132.025 97.6342C133.646 97.3795 135.305 97.6141 136.792 98.3077C138.278 99.0014 139.523 100.123 140.367 101.527C145.203 109.4 151.141 117.413 150.196 127.009C160.693 92.4087 149.548 52.9395 122.877 28.6084C116.127 26.0947 110.166 20.7392 107.801 13.8484C111.045 14.4382 114.526 11.3603 111.722 8.45276C110.532 7.35906 109.333 6.27662 108.143 5.18285C118.032 -9.03068 134.914 8.52527 124.489 27.2782C129.496 31.9463 134.001 37.1246 137.931 42.7284C136.28 36.4059 136.156 29.7823 137.568 23.4023C139.071 17.4287 142.749 12.0421 145.886 6.60701C149.697 -0.0139401 159.751 1.2983 161.494 8.72972C157.377 10.7884 157.738 17.1139 162.814 17.2382C163.587 31.4274 156.333 45.6418 144.631 53.6408C151.217 66.0048 155.09 79.6288 155.99 93.6051C155.83 77.1394 172.593 70.6652 183.767 62.4634C184.465 61.8555 185.326 61.4636 186.243 61.3358C187.161 61.2079 188.096 61.3496 188.934 61.7434C189.773 62.1373 190.478 62.7663 190.965 63.5538C191.451 64.3413 191.698 65.2532 191.674 66.1783C190.102 67.1046 188.625 68.1846 187.266 69.4024C186.631 69.9804 186.19 70.7406 186.003 71.5788C185.817 72.4171 185.895 73.2923 186.227 74.0845C186.558 74.8767 187.127 75.5471 187.855 76.0038C188.583 76.4606 189.434 76.6813 190.292 76.6357C186.415 92.6415 172.118 105.114 155.885 107.451C155.327 114.448 154.041 121.368 152.05 128.101L127.97 131.652C127.844 131.398 127.726 131.134 127.608 130.878C129.858 130.689 132.076 130.226 134.213 129.498C127.285 123.394 122.198 120.509 124.191 110.267L124.192 110.266Z" fill="#F2F2F2"/>
<path d="M148.411 102.554C137.448 102.554 131.501 101.216 129.425 98.3598C127.592 95.8396 128.821 92.5144 130.243 88.6642C131.266 85.8968 132.424 82.7603 132.424 79.656C132.424 64.5573 140.089 56.9015 155.205 56.9015C162.726 56.9015 170.802 60.8921 176.807 67.5766C182.266 73.6534 184.986 80.9264 184.269 87.5304C183.681 92.9465 181.157 96.5083 176.326 98.7401L176.043 98.8706L175.963 98.5703C175.546 97.0158 174.84 95.5535 173.882 94.2596C173.789 96.2907 173.276 98.2805 172.376 100.104L172.325 100.208L172.213 100.24C166.746 101.796 160.257 102.217 155.215 102.41C152.761 102.506 150.493 102.554 148.411 102.554Z" fill="#2F2E41"/>
<path d="M151.399 123.591C150.978 122.358 150.27 121.242 149.331 120.336C148.393 119.431 147.252 118.762 146.003 118.386C144.754 118.009 143.433 117.935 142.15 118.17C140.867 118.406 139.658 118.943 138.625 119.739L102.564 141.273L91.2806 113.772C92.2338 112.376 92.7197 110.713 92.6685 109.024C92.6173 107.334 92.0318 105.704 90.9958 104.367C89.9598 103.031 88.5266 102.056 86.9017 101.583C85.2769 101.11 83.5439 101.164 81.9513 101.735C80.3587 102.307 78.9883 103.368 78.0366 104.766C77.085 106.164 76.601 107.827 76.6541 109.516C76.7072 111.206 77.2946 112.835 78.3321 114.171C79.3696 115.506 80.8039 116.479 82.4293 116.95C83.1248 124.881 86.9899 160.326 100.436 159.037C111.738 157.954 139.805 139.284 148.523 132.81C149.918 131.775 150.947 130.325 151.464 128.669C151.981 127.012 151.958 125.234 151.399 123.591Z" fill="#FFB6B6"/>
<path d="M77.2177 135.201C78.2483 134.283 78.565 132.957 77.9251 132.241C77.2853 131.525 75.9311 131.69 74.9006 132.608C73.8701 133.527 73.5534 134.852 74.1932 135.568C74.8331 136.284 76.1872 136.12 77.2177 135.201Z" fill="#3F3D56"/>
<path d="M36.712 131.525C37.7425 130.606 38.0592 129.281 37.4194 128.565C36.7795 127.849 35.4254 128.013 34.3948 128.932C33.3643 129.851 33.0476 131.176 33.6875 131.892C34.3273 132.608 35.6814 132.444 36.712 131.525Z" fill="#E6E6E6"/>
<path d="M143.109 106.758L160.399 105.868L168.43 118.543C168.43 118.543 183.54 121.066 182.493 138.852C181.446 156.637 164.108 172.243 164.108 172.243L164.849 181.505L163.562 185.178L163.727 187.241L165.483 189.426L165.664 191.685L164.108 195.259L166.224 198.682L121.744 194.377L120.117 188.459L122.49 185.281L121.165 181.136L123.157 177.149L124.196 164.484C124.196 164.484 112.83 147.427 125.878 134.581L131.115 125.688L136.975 118.547L143.109 106.758Z" fill="#0093D5"/>
<path d="M2.36524 90.1773C3.30031 89.9563 3.80043 88.6887 3.48227 87.346C3.16412 86.0034 2.14817 85.0942 1.21309 85.3153C0.278017 85.5364 -0.222095 86.804 0.0960602 88.1466C0.414215 89.4892 1.43016 90.3984 2.36524 90.1773Z" fill="#3F3D56"/>
<path d="M2.51801 73.8451C3.45309 73.624 3.95321 72.3564 3.63506 71.0138C3.3169 69.6711 2.30094 68.762 1.36587 68.983C0.430788 69.2041 -0.0693236 70.4717 0.248831 71.8143C0.566986 73.1569 1.58293 74.0661 2.51801 73.8451Z" fill="#E6E6E6"/>
<path d="M151.704 103.179C161.823 103.179 170.025 94.9855 170.025 84.8787C170.025 74.7719 161.823 66.5787 151.704 66.5787C141.586 66.5787 133.383 74.7719 133.383 84.8787C133.383 94.9855 141.586 103.179 151.704 103.179Z" fill="#FFB6B6"/>
<path d="M149.251 83.7694C147.672 83.7694 146.094 83.725 144.517 83.6361L144.236 83.6203L144.273 83.3409C144.505 81.5941 144.374 79.8183 143.889 78.1242C143.064 80.0531 141.837 81.7842 140.289 83.2019L140.202 83.2818L140.084 83.2691C135.801 82.8011 131.557 82.028 127.384 80.9555L127.224 80.9147L127.192 80.7532C126.881 79.2246 126.719 77.6692 126.711 76.1093C126.711 71.2362 128.479 67.1347 131.691 64.5604C135.187 61.7582 140.199 60.8964 145.807 62.1324H163.741C165.713 62.1346 167.603 62.9179 168.997 64.3105C170.392 65.703 171.176 67.5911 171.178 69.5604V80.9042L170.982 80.9553C163.889 82.8173 156.586 83.7631 149.251 83.7694Z" fill="#2F2E41"/>
<path d="M9.9412 64.1984C11.9794 63.4103 13.1868 61.6233 12.638 60.207C12.0891 58.7908 9.99181 58.2815 7.95357 59.0696C5.91533 59.8577 4.70795 61.6447 5.25682 63.0609C5.80569 64.4772 7.90296 64.9864 9.9412 64.1984Z" fill="#FF6584"/>
<path d="M24.8887 56.3496C25.8238 56.1285 26.3239 54.8609 26.0057 53.5183C25.6876 52.1757 24.6716 51.2665 23.7366 51.4875C22.8015 51.7086 22.3014 52.9762 22.6195 54.3188C22.9377 55.6614 23.9536 56.5706 24.8887 56.3496Z" fill="#E6E6E6"/>
<path d="M11.3729 53.0711C12.3079 52.8501 12.8081 51.5825 12.4899 50.2398C12.1717 48.8972 11.1558 47.988 10.2207 48.2091C9.28565 48.4302 8.78553 49.6978 9.10369 51.0404C9.42184 52.383 10.4378 53.2922 11.3729 53.0711Z" fill="#FF6584"/>
<path d="M12.1668 42.3289C14.205 41.5408 15.4124 39.7538 14.8635 38.3375C14.3147 36.9213 12.2174 36.412 10.1791 37.2001C8.1409 37.9882 6.93353 39.7752 7.4824 41.1914C8.03127 42.6077 10.1285 43.1169 12.1668 42.3289Z" fill="#E6E6E6"/>
<path d="M139.428 41.7883C140.792 41.1181 141.116 38.9867 140.152 37.0277C139.187 35.0687 137.299 34.024 135.935 34.6942C134.57 35.3644 134.246 37.4958 135.211 39.4548C136.175 41.4138 138.063 42.4586 139.428 41.7883Z" fill="#3F3D56"/>
<path d="M25.6984 38.0318C26.6334 37.8108 27.1336 36.5431 26.8154 35.2005C26.4972 33.8579 25.4813 32.9487 24.5462 33.1698C23.6111 33.3909 23.111 34.6585 23.4292 36.0011C23.7473 37.3437 24.7633 38.2529 25.6984 38.0318Z" fill="#3F3D56"/>
<path d="M37.8308 39.0405C39.869 38.2524 41.0764 36.4655 40.5276 35.0492C39.9787 33.6329 37.8814 33.1237 35.8432 33.9118C33.8049 34.6999 32.5976 36.4869 33.1464 37.9031C33.6953 39.3194 35.7926 39.8286 37.8308 39.0405Z" fill="#3F3D56"/>
<path d="M24.2371 63.4138C23.4342 63.7071 22.7806 64.3065 22.4197 65.0805C22.0588 65.8546 22.0199 66.74 22.3118 67.5425L41.659 120.568C41.9525 121.37 42.5526 122.022 43.3275 122.383C44.1024 122.744 44.9889 122.782 45.7924 122.491L120.882 95.1567C121.685 94.8634 122.338 94.264 122.699 93.49C123.06 92.716 123.099 91.8306 122.807 91.028L103.46 38.0028C103.167 37.2009 102.566 36.5481 101.792 36.1875C101.017 35.827 100.13 35.7882 99.3267 36.0796L24.2371 63.4138Z" fill="#CCCCCC"/>
<path d="M92.9353 102.407L46.9726 119.138C46.1078 119.452 45.1538 119.41 44.3198 119.022C43.4857 118.634 42.8399 117.931 42.5239 117.068L24.9762 68.9748C24.6621 68.111 24.7038 67.158 25.0923 66.325C25.4808 65.4919 26.1842 64.8468 27.0483 64.5311L97.8949 38.7415C98.7597 38.4278 99.7138 38.4696 100.548 38.8576C101.382 39.2456 102.028 39.9483 102.344 40.8114L110.823 64.0496C113.534 71.5058 113.173 79.7317 109.819 86.9225C106.466 94.1133 100.394 99.682 92.9353 102.407Z" fill="white"/>
<path d="M59.8627 67.6633L48.9404 71.6392C48.8034 71.689 48.658 71.7115 48.5123 71.7052C48.3667 71.6989 48.2237 71.664 48.0915 71.6025C47.9594 71.541 47.8406 71.4542 47.7421 71.3468C47.6436 71.2395 47.5672 71.1139 47.5172 70.977C47.4673 70.8402 47.4449 70.6949 47.4512 70.5495C47.4575 70.404 47.4924 70.2612 47.554 70.1292C47.6155 69.9972 47.7025 69.8786 47.8099 69.7802C47.9174 69.6817 48.0432 69.6054 48.1801 69.5555L59.1024 65.5796C59.3791 65.4789 59.6844 65.4921 59.9513 65.6163C60.2182 65.7404 60.4248 65.9654 60.5256 66.2417C60.6264 66.518 60.6132 66.823 60.4889 67.0896C60.3646 67.3562 60.1393 67.5626 59.8627 67.6633H59.8627Z" fill="#0093D5"/>
<path d="M85.9016 63.0115L50.4951 75.9002C50.3581 75.9503 50.2126 75.9729 50.0668 75.9667C49.921 75.9605 49.7779 75.9257 49.6456 75.8643C49.5133 75.8028 49.3944 75.7159 49.2958 75.6086C49.1972 75.5012 49.1207 75.3754 49.0707 75.2385C49.0207 75.1016 48.9983 74.9562 49.0047 74.8106C49.011 74.665 49.046 74.5221 49.1077 74.39C49.1694 74.258 49.2565 74.1393 49.3642 74.0409C49.4718 73.9425 49.5977 73.8663 49.7349 73.8165L85.1413 60.9279C85.2783 60.878 85.4238 60.8556 85.5694 60.8619C85.7151 60.8682 85.858 60.9031 85.9902 60.9645C86.1224 61.026 86.2411 61.1129 86.3396 61.2202C86.4382 61.3275 86.5146 61.4532 86.5645 61.59C86.6144 61.7268 86.6369 61.8721 86.6306 62.0176C86.6243 62.1631 86.5894 62.3059 86.5278 62.4379C86.4662 62.5699 86.3792 62.6885 86.2718 62.7869C86.1644 62.8853 86.0386 62.9617 85.9016 63.0115Z" fill="#0093D5"/>
<path d="M87.6862 67.9026L52.2798 80.7913C52.1428 80.8412 51.9973 80.8636 51.8517 80.8573C51.706 80.851 51.563 80.8162 51.4309 80.7547C51.2987 80.6932 51.18 80.6063 51.0815 80.499C50.9829 80.3917 50.9065 80.266 50.8566 80.1292C50.8067 79.9924 50.7842 79.8471 50.7905 79.7016C50.7968 79.5561 50.8318 79.4133 50.8933 79.2813C50.9549 79.1493 51.0418 79.0307 51.1493 78.9323C51.2567 78.8339 51.3825 78.7575 51.5195 78.7077L86.9259 65.819C87.2025 65.7187 87.5076 65.7322 87.7742 65.8564C88.0408 65.9807 88.2471 66.2055 88.3478 66.4816C88.4486 66.7577 88.4355 67.0624 88.3114 67.3289C88.1874 67.5953 87.9625 67.8017 87.6862 67.9026Z" fill="#0093D5"/>
<path d="M89.4708 72.7939L54.0644 85.6826C53.9273 85.7326 53.7818 85.7552 53.636 85.7491C53.4902 85.7429 53.3471 85.7081 53.2148 85.6466C53.0825 85.5852 52.9637 85.4983 52.865 85.3909C52.7664 85.2835 52.6899 85.1578 52.6399 85.0209C52.59 84.884 52.5675 84.7385 52.5739 84.593C52.5802 84.4474 52.6152 84.3044 52.6769 84.1724C52.7386 84.0403 52.8257 83.9217 52.9334 83.8233C53.041 83.7249 53.167 83.6486 53.3041 83.5989L88.7105 70.7102C88.8475 70.6604 88.993 70.6379 89.1386 70.6442C89.2843 70.6505 89.4273 70.6854 89.5594 70.7469C89.6916 70.8084 89.8103 70.8953 89.9088 71.0026C90.0074 71.1099 90.0838 71.2356 90.1337 71.3724C90.1836 71.5092 90.2061 71.6545 90.1998 71.7999C90.1935 71.9454 90.1586 72.0883 90.097 72.2203C90.0355 72.3522 89.9485 72.4708 89.841 72.5693C89.7336 72.6677 89.6078 72.744 89.4708 72.7939Z" fill="#0093D5"/>
<path d="M91.2554 77.685L55.849 90.5737C55.5724 90.6744 55.267 90.6612 55.0001 90.537C54.7332 90.4128 54.5266 90.1878 54.4258 89.9115C54.325 89.6352 54.3382 89.3302 54.4625 89.0636C54.5868 88.7971 54.8121 88.5907 55.0887 88.49L90.4952 75.6013C90.6322 75.5515 90.7776 75.529 90.9233 75.5353C91.0689 75.5416 91.2119 75.5765 91.344 75.638C91.4762 75.6995 91.5949 75.7864 91.6935 75.8937C91.792 76.001 91.8684 76.1267 91.9183 76.2635C91.9683 76.4003 91.9907 76.5456 91.9844 76.6911C91.9781 76.8365 91.9432 76.9794 91.8816 77.1114C91.8201 77.2434 91.7331 77.362 91.6257 77.4604C91.5182 77.5588 91.3924 77.6351 91.2554 77.685H91.2554Z" fill="#0093D5"/>
<path d="M203.6 91.2688L184.215 137.604C183.388 139.565 181.822 141.122 179.856 141.94C177.889 142.758 175.68 142.77 173.704 141.975C172.682 141.564 171.754 140.949 170.978 140.168C170.201 139.387 169.592 138.456 169.188 137.432C168.783 136.408 168.592 135.313 168.625 134.213C168.658 133.113 168.915 132.031 169.381 131.033L190.995 83.5186L202.91 54.094C201.88 53.0683 201.191 51.7509 200.937 50.3208C200.684 48.8906 200.877 47.4171 201.49 46.1003C202.104 44.7836 203.109 43.6875 204.368 42.9609C205.627 42.2344 207.08 41.9126 208.528 42.0393C209.977 42.166 211.351 42.7351 212.465 43.6692C213.578 44.6033 214.377 45.8572 214.752 47.2605C215.127 48.6637 215.061 50.1484 214.562 51.5127C214.063 52.877 213.156 54.0548 211.964 54.8861L203.6 91.2688Z" fill="#FFB6B6"/>
<path d="M119.736 28.9575C121.047 28.5233 121.865 27.4328 121.562 26.5218C121.26 25.6107 119.952 25.2242 118.641 25.6584C117.33 26.0926 116.512 27.1831 116.814 28.0942C117.117 29.0052 118.425 29.3917 119.736 28.9575Z" fill="#E6E6E6"/>
<path d="M138.075 28.1586C139.386 27.7244 140.204 26.6338 139.902 25.7228C139.599 24.8118 138.291 24.4252 136.98 24.8594C135.669 25.2936 134.851 26.3842 135.154 27.2952C135.456 28.2062 136.764 28.5928 138.075 28.1586Z" fill="#3F3D56"/>
<path d="M121.822 15.2219C123.133 14.7877 123.951 13.6972 123.648 12.7862C123.346 11.8751 122.038 11.4886 120.727 11.9228C119.415 12.357 118.598 13.4475 118.9 14.3585C119.203 15.2696 120.511 15.6561 121.822 15.2219Z" fill="#FF6584"/>
<path d="M133.9 16.5416C135.264 15.8714 135.588 13.74 134.624 11.781C133.659 9.82202 131.771 8.77727 130.407 9.44749C129.043 10.1177 128.719 12.2491 129.683 14.2081C130.648 16.1671 132.536 17.2118 133.9 16.5416Z" fill="#E6E6E6"/>
<path d="M111.894 16.2435C113.259 15.5733 113.583 13.4419 112.618 11.4829C111.654 9.52394 109.766 8.47916 108.401 9.14938C107.037 9.81959 106.713 11.951 107.677 13.91C108.642 15.869 110.53 16.9137 111.894 16.2435Z" fill="#FF6584"/>
<path d="M84.0255 9.5105C85.3366 9.0763 86.1544 7.98578 85.852 7.07475C85.5496 6.16372 84.2415 5.77718 82.9304 6.21138C81.6193 6.64558 80.8016 7.73609 81.104 8.64712C81.4064 9.55815 82.7144 9.9447 84.0255 9.5105Z" fill="#3F3D56"/>
<path d="M100.327 8.23145C101.638 7.79725 102.456 6.70673 102.154 5.7957C101.851 4.88467 100.543 4.49811 99.2323 4.93231C97.9211 5.36652 97.1034 6.45705 97.4058 7.36808C97.7082 8.27911 99.0162 8.66565 100.327 8.23145Z" fill="#E6E6E6"/>
</g>
<defs>
<clipPath id="clip0_279_1940">
<rect width="247" height="280" fill="white"/>
</clipPath>
</defs>
</svg>
